<?xml version="1.0" encoding="UTF-8" standalone="no"?>
<!DOCTYPE svg PUBLIC "-//W3C//DTD SVG 1.1//EN" "http://www.w3.org/Graphics/SVG/1.1/DTD/svg11.dtd">
<svg width="100%" height="100%" viewBox="0 0 37 21" version="1.1" xmlns="http://www.w3.org/2000/svg" xmlns:xlink="http://www.w3.org/1999/xlink" xml:space="preserve" xmlns:serif="http://www.serif.com/" style="fill-rule:evenodd;clip-rule:evenodd;stroke-linejoin:round;stroke-miterlimit:2;">
    <g transform="matrix(1,0,0,1,-3079.6,-6718.61)">
        <g transform="matrix(0.138315,0,0,0.138315,3065.44,6704.46)">
            <path d="M293.91,212.775C287.885,212.775 282.984,207.87 282.984,201.845C282.984,195.82 287.885,190.919 293.91,190.919C299.936,190.919 304.837,195.82 304.837,201.845C304.837,207.87 299.936,212.775 293.91,212.775M173.136,212.775C167.111,212.775 162.21,207.87 162.21,201.845C162.21,195.82 167.111,190.919 173.136,190.919C179.161,190.919 184.062,195.82 184.062,201.845C184.062,207.87 179.161,212.775 173.136,212.775M297.829,146.955L319.667,109.133C320.919,106.959 320.175,104.182 318.004,102.927C315.834,101.675 313.054,102.42 311.798,104.59L289.687,142.89C272.778,135.174 253.787,130.875 233.523,130.875C213.259,130.875 194.269,135.174 177.36,142.89L155.248,104.59C153.993,102.42 151.213,101.675 149.042,102.927C146.872,104.182 146.124,106.959 147.379,109.133L169.217,146.955C131.718,167.35 106.071,205.313 102.319,250.164L364.727,250.164C360.972,205.313 335.325,167.35 297.829,146.955" style="fill:rgb(61,219,133);fill-rule:nonzero;"/>
        </g>
    </g>
</svg>
