<?xml version="1.0" encoding="UTF-8" standalone="no"?>
<!DOCTYPE svg PUBLIC "-//W3C//DTD SVG 1.1//EN" "http://www.w3.org/Graphics/SVG/1.1/DTD/svg11.dtd">
<svg width="100%" height="100%" viewBox="0 0 37 37" version="1.1" xmlns="http://www.w3.org/2000/svg" xmlns:xlink="http://www.w3.org/1999/xlink" xml:space="preserve" xmlns:serif="http://www.serif.com/" style="fill-rule:evenodd;clip-rule:evenodd;stroke-linejoin:round;stroke-miterlimit:2;">
    <g transform="matrix(1,0,0,1,-453.472,-3682.28)">
        <g transform="matrix(0.679507,0,0,3.74518,1230.11,2229.15)">
            <g transform="matrix(0.962231,0,0,0.588323,237.955,-310.451)">
                <g transform="matrix(1.06771,0,0,0.316838,-2276,0)">
                    <rect x="787.57" y="3747" width="53" height="53" style="fill:white;"/>
                </g>
                <g transform="matrix(1.52942,0,0,0.45385,-2128.65,-484.01)">
                    <path d="M463.708,3701.66C462.191,3701.66 460.958,3702.89 460.958,3704.41L460.958,3707.16C460.958,3708.68 462.191,3709.91 463.708,3709.91L480.208,3709.91C481.725,3709.91 482.958,3708.68 482.958,3707.16L482.958,3704.41C482.958,3702.89 481.725,3701.66 480.208,3701.66L463.708,3701.66ZM475.739,3704.75C476.305,3704.75 476.771,3705.22 476.771,3705.78C476.771,3706.35 476.305,3706.82 475.739,3706.82C475.174,3706.82 474.708,3706.35 474.708,3705.78C474.708,3705.22 475.174,3704.75 475.739,3704.75ZM478.146,3705.78C478.146,3705.22 478.611,3704.75 479.177,3704.75C479.743,3704.75 480.208,3705.22 480.208,3705.78C480.208,3706.35 479.743,3706.82 479.177,3706.82C478.611,3706.82 478.146,3706.35 478.146,3705.78ZM463.736,3691.66C462.219,3691.66 460.986,3692.89 460.986,3694.41L460.986,3697.16C460.986,3698.68 462.219,3699.91 463.736,3699.91L480.236,3699.91C481.753,3699.91 482.986,3698.68 482.986,3697.16L482.986,3694.41C482.986,3692.89 481.753,3691.66 480.236,3691.66L463.736,3691.66ZM475.767,3694.75C476.333,3694.75 476.799,3695.22 476.799,3695.78C476.799,3696.35 476.333,3696.82 475.767,3696.82C475.202,3696.82 474.736,3696.35 474.736,3695.78C474.736,3695.22 475.202,3694.75 475.767,3694.75ZM478.174,3695.78C478.174,3695.22 478.639,3694.75 479.205,3694.75C479.771,3694.75 480.236,3695.22 480.236,3695.78C480.236,3696.35 479.771,3696.82 479.205,3696.82C478.639,3696.82 478.174,3696.35 478.174,3695.78Z" style="fill-rule:nonzero;"/>
                </g>
            </g>
        </g>
    </g>
</svg>
