<?xml version="1.0" encoding="UTF-8" standalone="no"?>
<!DOCTYPE svg PUBLIC "-//W3C//DTD SVG 1.1//EN" "http://www.w3.org/Graphics/SVG/1.1/DTD/svg11.dtd">
<svg width="100%" height="100%" viewBox="0 0 112 23" version="1.1" xmlns="http://www.w3.org/2000/svg" xmlns:xlink="http://www.w3.org/1999/xlink" xml:space="preserve" xmlns:serif="http://www.serif.com/" style="fill-rule:evenodd;clip-rule:evenodd;stroke-linejoin:round;stroke-miterlimit:2;">
    <g transform="matrix(1,0,0,1,-2503.56,-6717.69)">
        <g transform="matrix(0.837748,0,0,4.61734,3659.16,3860.37)">
            <g id="logo-gradient-blue-bitbucket.svg" transform="matrix(0.83151,0,0,0.150865,-1312.9,621.238)">
                <g transform="matrix(1,0,0,1,-80,-16)">
                    <clipPath id="_clip1">
                        <rect x="0" y="0" width="160" height="32"/>
                    </clipPath>
                    <g clip-path="url(#_clip1)">
                        <g id="logo-gradient-blue-bitbucket">
                            <rect x="0" y="0" width="160" height="32" style="fill:white;fill-opacity:0.01;fill-rule:nonzero;"/>
                            <g id="Bitbucket">
                                <path d="M33.926,5.599L42.624,5.599C46.864,5.599 48.913,7.615 48.913,10.847C48.913,13.28 47.763,14.774 45.427,15.295C48.481,15.782 50.027,17.416 50.027,20.265C50.027,23.463 47.799,25.687 43.127,25.687L33.926,25.687L33.926,5.599ZM36.801,14.183L42.264,14.183C44.96,14.183 46.074,13.002 46.074,11.055C46.074,9.109 44.888,8.171 42.264,8.171L36.801,8.171L36.801,14.183ZM36.801,16.651L36.801,22.907L43.27,22.907C46.002,22.907 47.224,21.968 47.224,19.953C47.224,17.798 46.038,16.651 43.199,16.651L36.801,16.651Z" style="fill:rgb(37,56,88);fill-rule:nonzero;"/>
                                <path d="M54.699,4.521C55.813,4.521 56.604,5.182 56.604,6.363C56.604,7.51 55.813,8.205 54.699,8.205C53.585,8.205 52.794,7.545 52.794,6.363C52.794,5.182 53.585,4.521 54.699,4.521ZM53.297,10.395L56.029,10.395L56.029,25.687L53.297,25.687L53.297,10.395Z" style="fill:rgb(37,56,88);fill-rule:nonzero;"/>
                                <path d="M66.379,23.22C67.026,23.22 67.601,23.081 68.104,23.011L68.104,25.548C67.637,25.687 67.098,25.792 66.271,25.792C62.893,25.792 61.24,23.88 61.24,21.03L61.24,12.828L58.688,12.828L58.688,10.395L61.24,10.395L61.24,7.163L63.899,7.163L63.899,10.395L68.104,10.395L68.104,12.828L63.899,12.828L63.899,20.926C63.899,22.281 64.726,23.22 66.379,23.22Z" style="fill:rgb(37,56,88);fill-rule:nonzero;"/>
                                <path d="M74.286,22.976L74.286,25.652L71.554,25.652L71.554,4L74.286,4L74.286,13.141C75.292,11.125 77.197,10.082 79.64,10.082C83.845,10.082 85.966,13.523 85.966,18.041C85.966,22.351 83.738,26 79.317,26C77.017,26 75.256,24.992 74.286,22.976ZM78.922,12.55C76.478,12.55 74.322,14.044 74.322,17.45L74.322,18.667C74.322,22.073 76.298,23.567 78.634,23.567C81.689,23.567 83.27,21.621 83.27,18.076C83.234,14.357 81.725,12.55 78.922,12.55Z" style="fill:rgb(37,56,88);fill-rule:nonzero;"/>
                                <path d="M88.805,10.395L91.536,10.395L91.536,19.64C91.536,22.386 92.686,23.602 95.274,23.602C97.79,23.602 99.551,21.968 99.551,18.875L99.551,10.395L102.282,10.395L102.282,25.687L99.551,25.687L99.551,23.185C98.544,24.992 96.676,26 94.555,26C90.925,26 88.841,23.567 88.841,19.362L88.841,10.395L88.805,10.395Z" style="fill:rgb(37,56,88);fill-rule:nonzero;"/>
                                <path d="M117.52,25.27C116.586,25.757 115.112,25.965 113.675,25.965C108.032,25.965 105.409,22.664 105.409,17.972C105.409,13.349 108.032,10.047 113.675,10.047C115.112,10.047 116.19,10.221 117.448,10.777L117.448,13.21C116.442,12.758 115.364,12.48 113.89,12.48C109.793,12.48 108.104,14.983 108.104,17.972C108.104,20.961 109.829,23.463 113.962,23.463C115.58,23.463 116.586,23.254 117.556,22.907L117.556,25.27L117.52,25.27Z" style="fill:rgb(37,56,88);fill-rule:nonzero;"/>
                                <path d="M120.611,25.687L120.611,4L123.342,4L123.342,17.555L130.135,10.395L133.693,10.395L126.253,17.902L134.016,25.687L130.314,25.687L123.342,18.528L123.342,25.687L120.611,25.687Z" style="fill:rgb(37,56,88);fill-rule:nonzero;"/>
                                <path d="M143.001,26C137.071,26 134.483,22.698 134.483,18.006C134.483,13.384 137.143,10.082 141.959,10.082C146.846,10.082 148.787,13.349 148.787,18.006L148.787,19.188L137.251,19.188C137.646,21.795 139.371,23.463 143.109,23.463C144.942,23.463 146.487,23.115 147.925,22.629L147.925,25.062C146.631,25.757 144.618,26 143.001,26ZM137.215,16.929L146.056,16.929C145.912,14.079 144.582,12.48 141.851,12.48C138.976,12.48 137.502,14.288 137.215,16.929Z" style="fill:rgb(37,56,88);fill-rule:nonzero;"/>
                                <path d="M158.275,23.22C158.922,23.22 159.497,23.081 160,23.011L160,25.548C159.533,25.687 158.994,25.792 158.167,25.792C154.789,25.792 153.136,23.88 153.136,21.03L153.136,12.828L150.584,12.828L150.584,10.395L153.136,10.395L153.136,7.163L155.795,7.163L155.795,10.395L160,10.395L160,12.828L155.795,12.828L155.795,20.926C155.795,22.281 156.622,23.22 158.275,23.22Z" style="fill:rgb(37,56,88);fill-rule:nonzero;"/>
                            </g>
                            <g id="Icon">
                                <path id="Vector" d="M0.719,6.19C0.287,6.19 -0.072,6.572 -0,6.989L3.055,24.888C3.127,25.34 3.522,25.687 4.025,25.687L18.652,25.687C19.012,25.687 19.299,25.444 19.371,25.096L22.426,6.989C22.498,6.572 22.174,6.19 21.707,6.19L0.719,6.19ZM13.585,19.119L8.913,19.119L7.655,12.724L14.735,12.724L13.585,19.119Z" style="fill:rgb(38,132,255);fill-rule:nonzero;"/>
                                <path id="Vector_2" d="M21.455,12.724L14.699,12.724L13.585,19.119L8.913,19.119L3.378,25.444C3.378,25.444 3.63,25.687 4.025,25.687L18.652,25.687C19.012,25.687 19.299,25.444 19.371,25.096L21.455,12.724Z" style="fill:url(#_Linear2);fill-rule:nonzero;"/>
                            </g>
                        </g>
                    </g>
                </g>
            </g>
        </g>
    </g>
    <defs>
        <linearGradient id="_Linear2" x1="0" y1="0" x2="1" y2="0" gradientUnits="userSpaceOnUse" gradientTransform="matrix(-10.8633,8.7686,-8.7686,-10.8633,23.0048,14.52)"><stop offset="0" style="stop-color:rgb(0,82,204);stop-opacity:1"/><stop offset="0.18" style="stop-color:rgb(0,82,204);stop-opacity:1"/><stop offset="1" style="stop-color:rgb(38,132,255);stop-opacity:1"/></linearGradient>
    </defs>
</svg>
