<?xml version="1.0" encoding="UTF-8" standalone="no"?>
<!DOCTYPE svg PUBLIC "-//W3C//DTD SVG 1.1//EN" "http://www.w3.org/Graphics/SVG/1.1/DTD/svg11.dtd">
<svg width="100%" height="100%" viewBox="0 0 93 26" version="1.1" xmlns="http://www.w3.org/2000/svg" xmlns:xlink="http://www.w3.org/1999/xlink" xml:space="preserve" xmlns:serif="http://www.serif.com/" style="fill-rule:evenodd;clip-rule:evenodd;stroke-linejoin:round;stroke-miterlimit:2;">
    <g transform="matrix(1,0,0,1,-3230.9,-6561.86)">
        <g transform="matrix(0.628973,0,0,4.61734,4082.51,3706.33)">
            <g id="hyper-v.html" transform="matrix(1.3272,0,0,0.180791,-1280.31,621.238)">
                <g transform="matrix(1,0,0,1,-55.5,-15.5)">
                    <path d="M64.249,0.968C64.46,0.843 64.695,0.765 64.939,0.736C65.183,0.708 65.43,0.73 65.664,0.802L65.664,1.635C65.555,1.577 65.435,1.541 65.312,1.53C65.189,1.518 65.065,1.532 64.947,1.569C64.86,1.61 64.783,1.674 64.727,1.753C64.67,1.832 64.635,1.925 64.625,2.022C64.604,2.264 64.598,2.506 64.607,2.749L66.028,2.749L66.028,1.827C66.351,1.736 66.668,1.633 66.989,1.536L66.989,2.751L67.951,2.751L67.951,3.529C67.628,3.515 67.307,3.529 66.977,3.529L66.977,4.89C66.977,5.141 66.964,5.394 66.993,5.643C66.995,5.72 67.016,5.795 67.052,5.862C67.088,5.93 67.141,5.988 67.203,6.032C67.321,6.087 67.453,6.11 67.583,6.098C67.713,6.086 67.837,6.039 67.943,5.962L67.943,6.757C67.661,6.873 67.357,6.92 67.053,6.893C66.909,6.889 66.767,6.856 66.635,6.796C66.504,6.736 66.386,6.65 66.289,6.543C66.093,6.275 65.996,5.947 66.014,5.616L66.014,3.529L64.593,3.529L64.593,6.804L63.621,6.804L63.621,3.531L62.943,3.531L62.943,2.753L63.616,2.753C63.596,2.407 63.618,2.059 63.683,1.718C63.77,1.411 63.965,1.145 64.231,0.97L64.249,0.968Z" style="fill:rgb(0,173,239);fill-rule:nonzero;"/>
                    <path d="M43.451,1.026C43.55,1.01 43.651,1.02 43.745,1.054C43.839,1.088 43.923,1.145 43.99,1.22C44.064,1.306 44.11,1.413 44.122,1.526C44.134,1.639 44.111,1.753 44.056,1.852C43.989,1.959 43.892,2.042 43.776,2.09C43.66,2.139 43.532,2.15 43.41,2.123C43.283,2.099 43.169,2.032 43.087,1.933C43.004,1.835 42.959,1.71 42.958,1.582C42.96,1.446 43.011,1.316 43.101,1.215C43.192,1.113 43.316,1.048 43.451,1.032L43.451,1.026Z" style="fill:rgb(0,173,239);fill-rule:nonzero;"/>
                    <path d="M36.007,1.144L37.42,1.144C37.86,2.26 38.304,3.374 38.743,4.491C38.856,4.769 38.961,5.051 39.078,5.329C39.644,3.935 40.219,2.544 40.779,1.148L42.141,1.148L42.141,6.807L41.168,6.807L41.168,2.435C41.149,2.464 41.131,2.494 41.116,2.525C40.555,3.95 39.983,5.372 39.424,6.803L38.726,6.803C38.147,5.377 37.572,3.951 37,2.525C36.984,2.495 36.968,2.466 36.951,2.439C36.939,3.048 36.951,3.658 36.951,4.269L36.951,6.797L36.027,6.797L36.027,1.136L36.007,1.144Z" style="fill:rgb(0,173,239);fill-rule:nonzero;"/>
                    <path d="M46.125,2.745C46.597,2.612 47.096,2.612 47.567,2.745C47.665,2.772 47.758,2.811 47.846,2.862L47.846,3.79C47.535,3.537 47.138,3.414 46.738,3.449C46.58,3.463 46.426,3.51 46.287,3.587C46.148,3.665 46.026,3.77 45.93,3.897C45.704,4.225 45.612,4.627 45.674,5.021C45.696,5.33 45.835,5.618 46.063,5.828C46.318,6.034 46.645,6.132 46.972,6.098C47.288,6.056 47.589,5.933 47.844,5.74L47.844,6.619C47.438,6.839 46.976,6.934 46.516,6.894C46.045,6.875 45.596,6.688 45.251,6.367C44.891,6.003 44.683,5.517 44.667,5.005C44.631,4.474 44.767,3.945 45.057,3.498C45.316,3.127 45.698,2.858 46.135,2.738L46.125,2.745Z" style="fill:rgb(0,173,239);fill-rule:nonzero;"/>
                    <path d="M56.734,2.683C57.187,2.609 57.651,2.657 58.079,2.823L58.079,3.715C57.779,3.509 57.422,3.404 57.059,3.414C56.966,3.412 56.874,3.434 56.792,3.479C56.711,3.524 56.643,3.59 56.596,3.671C56.56,3.757 56.554,3.853 56.58,3.943C56.605,4.033 56.66,4.112 56.736,4.167C57.01,4.361 57.339,4.429 57.626,4.594C57.86,4.71 58.054,4.895 58.182,5.123C58.288,5.348 58.321,5.601 58.276,5.845C58.23,6.089 58.109,6.313 57.929,6.485C57.74,6.64 57.523,6.755 57.289,6.826C57.055,6.896 56.81,6.92 56.566,6.895C56.227,6.879 55.893,6.802 55.58,6.67L55.58,5.73C55.84,5.926 56.142,6.059 56.462,6.119C56.686,6.166 56.919,6.144 57.131,6.057C57.176,6.029 57.214,5.993 57.244,5.95C57.275,5.907 57.296,5.858 57.307,5.807C57.318,5.755 57.319,5.702 57.308,5.651C57.298,5.599 57.277,5.55 57.248,5.507C57.129,5.384 56.984,5.289 56.823,5.229C56.528,5.119 56.246,4.975 55.984,4.799C55.804,4.662 55.676,4.468 55.623,4.248C55.577,4.086 55.566,3.915 55.589,3.748C55.612,3.581 55.669,3.42 55.757,3.276C55.87,3.116 56.015,2.981 56.182,2.879C56.35,2.777 56.536,2.71 56.73,2.683L56.734,2.683Z" style="fill:rgb(0,173,239);fill-rule:nonzero;"/>
                    <path d="M50.017,2.819C50.153,2.743 50.304,2.697 50.46,2.684C50.615,2.67 50.772,2.691 50.918,2.743L50.918,3.716C50.722,3.593 50.491,3.539 50.261,3.562C50.127,3.586 50.001,3.642 49.895,3.727C49.789,3.812 49.705,3.923 49.654,4.048C49.542,4.31 49.495,4.594 49.515,4.877L49.515,6.822L48.558,6.822L48.558,2.767L49.515,2.767L49.515,3.463C49.607,3.201 49.784,2.977 50.017,2.827L50.017,2.819Z" style="fill:rgb(0,173,239);fill-rule:nonzero;"/>
                    <rect x="43.048" y="2.751" width="0.973" height="4.055" style="fill:rgb(0,173,239);fill-rule:nonzero;"/>
                    <path d="M54.944,3.697C54.775,3.317 54.473,3.012 54.096,2.839C53.656,2.658 53.175,2.602 52.706,2.676C52.208,2.729 51.75,2.974 51.429,3.358C51.154,3.715 50.997,4.148 50.98,4.597C50.921,5.128 51.047,5.663 51.336,6.112C51.605,6.488 52.006,6.749 52.459,6.843C52.834,6.922 53.221,6.922 53.595,6.843C54.038,6.755 54.434,6.511 54.71,6.155C54.967,5.813 55.116,5.402 55.137,4.974C55.179,4.539 55.113,4.1 54.944,3.697ZM54.006,5.56C53.913,5.771 53.743,5.939 53.529,6.027C53.275,6.121 52.998,6.133 52.737,6.062C52.606,6.025 52.484,5.962 52.379,5.875C52.274,5.789 52.189,5.681 52.128,5.56C51.986,5.242 51.935,4.89 51.98,4.545C51.997,4.226 52.13,3.925 52.356,3.699C52.533,3.543 52.759,3.453 52.996,3.446C53.143,3.432 53.291,3.449 53.431,3.497C53.572,3.544 53.699,3.621 53.807,3.722C54.017,3.955 54.136,4.255 54.142,4.568C54.176,4.905 54.129,5.245 54.006,5.56Z" style="fill:rgb(0,173,239);fill-rule:nonzero;"/>
                    <path d="M62.726,3.813C62.576,3.405 62.278,3.068 61.891,2.87C61.44,2.665 60.938,2.597 60.449,2.675C60.053,2.719 59.679,2.88 59.374,3.136C59.017,3.46 58.79,3.903 58.734,4.383C58.658,4.857 58.711,5.344 58.888,5.791C58.981,6.007 59.117,6.203 59.286,6.367C59.455,6.532 59.655,6.661 59.875,6.747C60.31,6.907 60.781,6.948 61.237,6.864C61.709,6.79 62.135,6.541 62.43,6.166C62.728,5.768 62.883,5.281 62.87,4.783C62.885,4.454 62.835,4.124 62.726,3.813ZM61.848,5.19C61.817,5.406 61.731,5.612 61.597,5.785C61.451,5.952 61.25,6.06 61.031,6.09C60.797,6.129 60.556,6.102 60.336,6.014C60.102,5.909 59.917,5.716 59.822,5.478C59.715,5.196 59.676,4.894 59.707,4.595C59.72,4.301 59.822,4.019 60.001,3.786C60.091,3.684 60.199,3.602 60.321,3.543C60.443,3.485 60.577,3.452 60.712,3.447C60.85,3.432 60.99,3.445 61.124,3.484C61.257,3.524 61.382,3.589 61.49,3.677C61.676,3.846 61.799,4.074 61.84,4.322C61.894,4.609 61.897,4.902 61.848,5.19Z" style="fill:rgb(0,173,239);fill-rule:nonzero;"/>
                    <path d="M47.143,25.51L45.407,25.51L45.407,18.767L37.741,18.767L37.741,25.51L36.007,25.51L36.007,10.708L37.741,10.708L37.741,17.198L45.407,17.198L45.407,10.708L47.143,10.708L47.143,25.51Z" style="fill:rgb(0,173,239);fill-rule:nonzero;"/>
                    <path d="M59.215,14.939L54.35,27.201C53.481,29.383 52.262,30.474 50.693,30.474C50.321,30.483 49.949,30.441 49.588,30.35L49.588,28.833C49.905,28.953 50.24,29.018 50.578,29.027C51.02,29.012 51.444,28.857 51.791,28.584C52.139,28.311 52.39,27.935 52.509,27.51L53.358,25.496L49.226,14.947L51.115,14.947L53.967,23.08L54.184,23.885L54.245,23.885C54.274,23.734 54.342,23.477 54.451,23.107L57.458,14.939L59.215,14.939Z" style="fill:rgb(0,173,239);fill-rule:nonzero;"/>
                    <path d="M70.759,19.903C70.841,21.439 70.376,22.955 69.447,24.181C69.025,24.7 68.488,25.114 67.878,25.39C67.268,25.666 66.603,25.796 65.934,25.77C65.294,25.794 64.66,25.64 64.101,25.328C63.542,25.015 63.08,24.554 62.766,23.997L62.723,23.997L62.723,30.376L61.028,30.376L61.028,14.944L62.723,14.944L62.723,16.801L62.766,16.801C63.117,16.143 63.646,15.596 64.291,15.223C64.937,14.849 65.675,14.663 66.421,14.687C67.02,14.663 67.617,14.777 68.165,15.02C68.713,15.262 69.199,15.628 69.583,16.087C70.417,17.179 70.833,18.532 70.759,19.903ZM69.025,19.882C69.073,18.909 68.789,17.948 68.217,17.159C67.955,16.824 67.617,16.557 67.231,16.379C66.845,16.201 66.421,16.119 65.996,16.138C65.552,16.122 65.11,16.204 64.701,16.379C64.293,16.553 63.928,16.816 63.632,17.147C63.012,17.861 62.687,18.783 62.723,19.728L62.723,21.204C62.712,21.615 62.783,22.024 62.934,22.407C63.084,22.79 63.309,23.139 63.597,23.433C63.873,23.725 64.207,23.955 64.578,24.11C64.948,24.265 65.348,24.34 65.75,24.331C66.216,24.349 66.68,24.251 67.098,24.045C67.517,23.84 67.879,23.534 68.151,23.155C68.789,22.187 69.098,21.039 69.03,19.882L69.025,19.882Z" style="fill:rgb(0,173,239);fill-rule:nonzero;"/>
                    <path d="M81.807,20.646L74.34,20.646C74.298,21.64 74.635,22.613 75.283,23.368C75.612,23.692 76.005,23.944 76.436,24.107C76.868,24.27 77.329,24.34 77.79,24.314C78.981,24.316 80.137,23.908 81.063,23.158L81.063,24.738C79.98,25.466 78.69,25.824 77.385,25.759C76.725,25.794 76.065,25.681 75.453,25.428C74.842,25.176 74.295,24.79 73.853,24.298C72.949,23.153 72.497,21.715 72.584,20.259C72.572,19.267 72.789,18.286 73.219,17.392C73.603,16.573 74.21,15.878 74.97,15.387C75.708,14.912 76.57,14.665 77.447,14.675C78.048,14.643 78.648,14.746 79.204,14.977C79.759,15.209 80.255,15.562 80.655,16.011C81.481,17.076 81.891,18.406 81.807,19.751L81.807,20.646ZM80.073,19.214C80.11,18.395 79.859,17.589 79.364,16.935C79.123,16.661 78.822,16.447 78.485,16.307C78.148,16.167 77.783,16.106 77.418,16.128C77.042,16.123 76.669,16.195 76.322,16.34C75.975,16.486 75.662,16.701 75.402,16.972C74.821,17.588 74.452,18.374 74.349,19.214L80.073,19.214Z" style="fill:rgb(0,173,239);fill-rule:nonzero;"/>
                    <path d="M89.804,16.653C89.295,16.338 88.683,16.237 88.099,16.371C87.516,16.505 87.01,16.863 86.69,17.368C86.188,18.196 85.944,19.154 85.987,20.12L85.987,25.509L84.292,25.509L84.292,14.939L85.987,14.939L85.987,17.117L86.028,17.117C86.221,16.451 86.597,15.851 87.112,15.386C87.575,14.973 88.175,14.747 88.796,14.752C89.14,14.738 89.483,14.788 89.809,14.898L89.804,16.653Z" style="fill:rgb(0,173,239);fill-rule:nonzero;"/>
                    <rect x="90.089" y="18.961" width="5.643" height="1.326" style="fill:rgb(0,173,239);fill-rule:nonzero;"/>
                    <path d="M110.007,10.707L104.532,25.509L102.633,25.509L97.252,10.707L99.183,10.707L103.283,22.444C103.425,22.87 103.525,23.308 103.583,23.753L103.624,23.753C103.689,23.298 103.803,22.853 103.964,22.423L108.148,10.707L110.007,10.707Z" style="fill:rgb(0,173,239);fill-rule:nonzero;"/>
                    <path d="M0.323,4.783L11.33,3.284L11.335,13.901L0.333,13.964L0.323,4.783ZM11.325,15.124L11.333,25.75L0.332,24.238L0.331,15.053L11.325,15.124ZM12.659,3.088L27.253,0.958L27.253,13.766L12.659,13.882L12.659,3.088ZM27.256,15.224L27.253,27.974L12.659,25.915L12.639,15.2L27.256,15.224Z" style="fill:rgb(0,173,239);fill-rule:nonzero;"/>
                </g>
            </g>
        </g>
    </g>
</svg>
