<?xml version="1.0" encoding="UTF-8" standalone="no"?>
<!DOCTYPE svg PUBLIC "-//W3C//DTD SVG 1.1//EN" "http://www.w3.org/Graphics/SVG/1.1/DTD/svg11.dtd">
<svg width="100%" height="100%" viewBox="0 0 37 19" version="1.1" xmlns="http://www.w3.org/2000/svg" xmlns:xlink="http://www.w3.org/1999/xlink" xml:space="preserve" xmlns:serif="http://www.serif.com/" style="fill-rule:evenodd;clip-rule:evenodd;stroke-linejoin:round;stroke-miterlimit:2;">
    <g transform="matrix(1,0,0,1,-3259.08,-6719.83)">
        <g transform="matrix(0.837748,0,0,4.61734,4377.1,3860.37)">
            <g id="IOS_wordmark_-2017-.svg" serif:id="IOS_wordmark_(2017).svg" transform="matrix(0.368341,0,0,0.06683,-1312.9,621.238)">
                <g transform="matrix(1,0,0,1,-58.8103,-29.18)">
                    <path id="path2" d="M0.547,57.422L10.273,57.422L10.273,16.016L0.547,16.016L0.547,57.422ZM5.391,10.586C8.438,10.586 10.82,8.242 10.82,5.313C10.82,2.344 8.438,0 5.391,0C2.383,0 0,2.344 0,5.313C0,8.242 2.383,10.586 5.391,10.586ZM42.658,0.117C26.213,0.117 15.9,11.328 15.9,29.258C15.9,47.188 26.212,58.36 42.658,58.36C59.064,58.36 69.377,47.188 69.377,29.258C69.377,11.328 59.065,0.117 42.658,0.117ZM42.658,8.711C52.697,8.711 59.103,16.68 59.103,29.258C59.103,41.797 52.696,49.766 42.658,49.766C32.58,49.766 26.213,41.797 26.213,29.258C26.213,16.68 32.58,8.711 42.658,8.711ZM73.48,41.563C73.909,51.954 82.425,58.36 95.394,58.36C109.027,58.36 117.621,51.641 117.621,40.938C117.621,32.539 112.777,27.813 101.332,25.196L94.847,23.711C87.933,22.071 85.082,19.883 85.082,16.133C85.082,11.446 89.379,8.321 95.746,8.321C102.191,8.321 106.605,11.485 107.074,16.758L116.683,16.758C116.449,6.836 108.246,0.117 95.824,0.117C83.558,0.117 74.847,6.875 74.847,16.875C74.847,24.922 79.769,29.922 90.159,32.305L97.464,34.024C104.573,35.704 107.464,38.047 107.464,42.11C107.464,46.797 102.737,50.157 95.941,50.157C89.066,50.157 83.871,46.758 83.246,41.563L73.48,41.563L73.48,41.563Z" style="fill-rule:nonzero;"/>
                </g>
            </g>
        </g>
    </g>
</svg>
