<?xml version="1.0" encoding="UTF-8" standalone="no"?>
<!DOCTYPE svg PUBLIC "-//W3C//DTD SVG 1.1//EN" "http://www.w3.org/Graphics/SVG/1.1/DTD/svg11.dtd">
<svg width="100%" height="100%" viewBox="0 0 112 24" version="1.1" xmlns="http://www.w3.org/2000/svg" xmlns:xlink="http://www.w3.org/1999/xlink" xml:space="preserve" xmlns:serif="http://www.serif.com/" style="fill-rule:evenodd;clip-rule:evenodd;stroke-linejoin:round;stroke-miterlimit:2;">
    <g transform="matrix(1,0,0,1,-2862.53,-6717.02)">
        <g transform="matrix(0.837748,0,0,4.61734,4018.13,3860.37)">
            <g transform="matrix(0.349995,0,0,0.0635014,-1330.06,613.548)">
                <path d="M135.62,92.19L143.54,92.19L143.54,132.4C143.54,143.05 138.87,150.35 127.96,150.35C124.731,150.401 121.518,149.897 118.46,148.86L118.46,141.2C121.067,142.212 123.843,142.721 126.64,142.7C133.33,142.7 135.64,138.7 135.64,132.93L135.62,92.19Z" style="fill:rgb(32,56,91);fill-rule:nonzero;"/>
                <path d="M158,89.11C160.897,89.11 163.28,91.493 163.28,94.39C163.28,97.287 160.897,99.67 158,99.67C155.103,99.67 152.72,97.287 152.72,94.39C152.712,94.273 152.707,94.155 152.707,94.037C152.707,91.327 154.937,89.097 157.647,89.097C157.765,89.097 157.883,89.102 158,89.11ZM154.1,106L161.67,106L161.67,150L154.1,150L154.1,106Z" style="fill:rgb(32,56,91);fill-rule:nonzero;"/>
                <path d="M180.5,150L173.11,150L173.11,106L180.5,106L180.5,113.75C183.05,108.55 187.45,104.86 196.07,105.38L196.07,112.78C186.39,111.78 180.5,114.71 180.5,124.04L180.5,150Z" style="fill:rgb(32,56,91);fill-rule:nonzero;"/>
                <path d="M231.54,142.08C228.72,147.89 223.44,150.88 216.67,150.88C204.96,150.88 199.07,140.94 199.07,128C199.07,115.59 205.22,105.12 217.54,105.12C223.97,105.12 228.9,108.03 231.54,113.75L231.54,106L239.1,106L239.1,150L231.54,150L231.54,142.08ZM218.69,143.84C225.46,143.84 231.54,139.53 231.54,129.76L231.54,126.24C231.54,116.47 225.99,112.16 219.54,112.16C211,112.16 206.6,117.79 206.6,128C206.63,138.56 210.86,143.84 218.69,143.84Z" style="fill:rgb(32,56,91);fill-rule:nonzero;"/>
                <g transform="matrix(1.04875,0,0,5.6074,-377.178,-4104.99)">
                    <g transform="matrix(1,0,0,0.187029,354.2,731.126)">
                        <path d="M76.2,91.4L65.3,134.4C79.2,138.3 90.2,133.2 94.5,116.5L100.9,91.4L76.2,91.4Z" style="fill:url(#_Linear1);fill-rule:nonzero;"/>
                    </g>
                    <g transform="matrix(1,0,0,0.187029,354.2,731.126)">
                        <path d="M61.4,149.6L72.3,106.6C58.4,102.7 47.4,107.8 43.1,124.5L36.8,149.6L61.4,149.6Z" style="fill:rgb(0,130,255);fill-rule:nonzero;"/>
                    </g>
                </g>
                <g transform="matrix(1.04875,0,0,1.04875,-83.4931,-5.87714)">
                    <path d="M68.83,113L89.73,113.12C91.513,113.128 92.975,114.597 92.975,116.38C92.975,117.087 92.745,117.775 92.32,118.34L61.47,159.5C55.922,155.368 52.647,148.845 52.647,141.928C52.647,137.204 54.174,132.605 57,128.82L68.83,113Z" style="fill:url(#_Linear2);fill-rule:nonzero;"/>
                    <path d="M57,128.82L36.22,128.69C34.436,128.683 32.972,127.214 32.972,125.43C32.972,124.727 33.2,124.043 33.62,123.48L64.19,82.65C73.824,89.851 75.828,103.704 68.63,113.34L57,128.82Z" style="fill:rgb(0,130,255);fill-rule:nonzero;"/>
                </g>
                <g transform="matrix(1,0,0,1,-167.373,0)">
                    <path d="M98.74,119L66.14,86.4L63,83.2L38.44,107.74L27.22,119C26.058,120.163 26.058,122.077 27.22,123.24L49.64,145.66L63,159L87.92,134.08L98.74,123.2C99.876,122.041 99.876,120.159 98.74,119ZM63,132.28L51.8,121.08L63,109.88L74.2,121.08L63,132.28Z" style="fill:rgb(0,130,255);fill-rule:nonzero;"/>
                    <path d="M63,109.88C55.715,102.595 55.679,90.619 62.92,83.29L38.42,107.79L51.76,121.13L63,109.88Z" style="fill:url(#_Linear3);fill-rule:nonzero;"/>
                    <path d="M74.21,121.05L63,132.28C66.55,135.817 68.548,140.628 68.548,145.64C68.548,150.652 66.55,155.463 63,159L87.57,134.43L74.21,121.05Z" style="fill:url(#_Linear4);fill-rule:nonzero;"/>
                </g>
            </g>
        </g>
    </g>
    <defs>
        <linearGradient id="_Linear1" x1="0" y1="0" x2="1" y2="0" gradientUnits="userSpaceOnUse" gradientTransform="matrix(22.38,-26.9,26.9,22.38,62.0326,134.584)"><stop offset="0" style="stop-color:rgb(0,80,211);stop-opacity:1"/><stop offset="1" style="stop-color:rgb(0,130,255);stop-opacity:1"/></linearGradient>
        <linearGradient id="_Linear2" x1="0" y1="0" x2="1" y2="0" gradientUnits="userSpaceOnUse" gradientTransform="matrix(8.78783,26.5742,-26.5742,8.78783,68.0027,116.087)"><stop offset="0" style="stop-color:rgb(0,80,211);stop-opacity:1"/><stop offset="1" style="stop-color:rgb(0,130,255);stop-opacity:1"/></linearGradient>
        <linearGradient id="_Linear3" x1="0" y1="0" x2="1" y2="0" gradientUnits="userSpaceOnUse" gradientTransform="matrix(-15.64,15.64,-15.64,-15.64,60.98,98.55)"><stop offset="0" style="stop-color:rgb(0,80,211);stop-opacity:1"/><stop offset="0.18" style="stop-color:rgb(0,80,211);stop-opacity:1"/><stop offset="1" style="stop-color:rgb(0,130,255);stop-opacity:1"/></linearGradient>
        <linearGradient id="_Linear4" x1="0" y1="0" x2="1" y2="0" gradientUnits="userSpaceOnUse" gradientTransform="matrix(383.538,-592.399,592.399,383.538,1663,5566.12)"><stop offset="0" style="stop-color:rgb(0,80,211);stop-opacity:1"/><stop offset="0.18" style="stop-color:rgb(0,80,211);stop-opacity:1"/><stop offset="1" style="stop-color:rgb(0,130,255);stop-opacity:1"/></linearGradient>
    </defs>
</svg>
