<?xml version="1.0" encoding="UTF-8" standalone="no"?>
<!DOCTYPE svg PUBLIC "-//W3C//DTD SVG 1.1//EN" "http://www.w3.org/Graphics/SVG/1.1/DTD/svg11.dtd">
<svg width="100%" height="100%" viewBox="0 0 104 37" version="1.1" xmlns="http://www.w3.org/2000/svg" xmlns:xlink="http://www.w3.org/1999/xlink" xml:space="preserve" xmlns:serif="http://www.serif.com/" style="fill-rule:evenodd;clip-rule:evenodd;stroke-linejoin:round;stroke-miterlimit:2;">
    <g transform="matrix(1,0,0,1,-2687.2,-6556.57)">
        <g transform="matrix(0.837748,0,0,4.61734,3838.65,3706.33)">
            <g transform="matrix(0.845799,0,0,0.153458,-1423.18,617.538)">
                <path d="M57.611,14.336L63.628,14.336L63.628,28.849L72.257,28.849L72.257,33.849L57.611,33.849L57.611,14.336Z" style="fill:rgb(32,33,33);fill-rule:nonzero;"/>
                <rect x="76.239" y="14.336" width="6.018" height="19.513" style="fill:rgb(32,33,33);fill-rule:nonzero;"/>
                <path d="M86.726,14.336L92.876,14.336L98.584,24.779L98.628,24.779L98.628,14.336L104.336,14.336L104.336,33.849L98.496,33.849L92.478,23.23L92.434,23.23L92.434,33.894L86.726,33.894L86.726,14.336Z" style="fill:rgb(32,33,33);fill-rule:nonzero;"/>
                <path d="M126.593,26.327C126.593,31.77 123.717,34.336 117.699,34.336C111.682,34.336 108.761,31.77 108.761,26.327L108.761,14.336L114.779,14.336L114.779,25C114.779,26.991 114.735,29.469 117.699,29.469C120.531,29.469 120.531,26.947 120.531,25L120.531,14.336L126.549,14.336L126.549,26.327L126.593,26.327Z" style="fill:rgb(32,33,33);fill-rule:nonzero;"/>
                <path d="M136.151,23.496L129.735,14.336L136.814,14.336L139.779,19.646L142.699,14.336L149.381,14.336L143.098,23.54L150,33.894L142.744,33.894L139.425,28.053L135.974,33.894L129.071,33.894L136.151,23.496Z" style="fill:rgb(32,33,33);fill-rule:nonzero;"/>
                <g transform="matrix(0.084011,0,0,0.084011,156.155,-5.94134)">
                    <g id="b">
                        <g>
                            <path d="M220.98,553.96C228.5,553.12 250.22,557.3 248.7,534.74C248.54,532.32 247.83,529.92 246.7,527.54C241.6,516.82 227.52,506.31 211.76,494.31C208.22,491.62 204.6,488.84 200.98,485.98C190.91,478.02 180.83,469.34 172.53,459.51C144.96,426.88 165.01,393.55 165.01,393.55C160,439.5 182.56,452.03 182.56,452.03C175.04,424.46 199.27,360.96 222.66,325.82C242.07,296.67 243.68,261.91 243.67,250.88C242.3,248.61 241.12,246.23 240.17,243.74C238.13,240.98 236.4,238.02 235.19,234.79C234.67,233.41 234.33,232.09 234.11,230.8C233.96,229.81 233.86,228.85 233.84,227.96C233.84,227.92 233.83,227.87 233.83,227.83C233.76,218 241.99,210.87 250.16,205.17C245.34,204.75 240.18,202.49 236.31,196.07C226.57,179.91 231.43,136.2 256.49,138.7C281.55,141.21 277.83,186.79 277.83,186.79C283.85,183.82 288.66,182.15 288.66,182.15C292.88,181.81 296.17,181.83 299.18,182.27C302.19,182.71 295.76,134.11 331.68,134.11C367.6,134.11 361.81,201.41 350.92,209.54C356.77,213.7 359.81,217.76 360.8,221.69C361.04,222.63 361.13,223.56 361.15,224.48C362.23,225 362.78,225.85 362.78,227.84C362.78,231.65 360.99,236.33 358.17,241.22C357.51,256.29 361.68,285.88 398.94,343.41C422.7,380.1 429.57,410.55 430.49,431.86C434.33,430.9 438.26,430.49 442.2,430.53C453.1,406.28 433.19,349.65 433.19,349.65C455.01,373.75 455.26,422.8 455.09,432.31C464.3,434.74 473.01,439.47 479.97,445.75C497.1,461.21 490.01,471.42 490.01,471.42C496.25,471.59 502.37,473.25 508.62,477.53C508.94,477.75 509.2,478 509.51,478.23C513.71,458.37 515.38,439.11 514.78,422.63C512.55,361.23 469.11,324.47 449.05,298.85C429,273.23 407.83,256.52 406.72,175.2C405.61,93.88 371.07,50.43 308.69,51.55C246.31,52.66 211.33,83.52 219.57,191.56C225.14,292.93 182.81,308.88 154.96,346.75C141.3,365.33 120.95,412.34 122.55,464.75C126.06,463.31 130.83,462.34 137.41,462.05C173.89,460.47 178.35,497.98 220.96,553.95L220.98,553.96ZM323.37,69.66C323.37,69.66 263.23,81.44 241.5,108.26C241.5,108.26 255.57,59.18 323.37,69.66ZM181.98,330.73C215.95,299.46 220.48,256.61 220.48,256.61C229.26,286.52 205.98,332.89 187.08,342.67C173.75,349.58 147.7,378.25 147.7,378.25C147.7,378.25 154.05,356.44 181.98,330.72L181.98,330.73Z" style="fill:rgb(32,33,33);fill-rule:nonzero;"/>
                            <path d="M377.47,593.68C377.59,586.14 377.79,579.03 378.07,572.31C314.1,610.46 261.78,591.26 235.67,575.88C248.42,598.15 249.66,612.98 248.24,621.7C275.04,624.27 328.37,627.37 377.89,618.35C377.5,611.4 377.32,603.28 377.47,593.67L377.47,593.68Z" style="fill:rgb(32,33,33);fill-rule:nonzero;"/>
                            <path d="M242.09,169.77C243.54,161.21 261.46,153.61 265.34,170.32C268.22,182.72 267.2,190.12 266.24,193.66C270.02,190.94 274.15,188.63 277.84,186.81C277.84,186.81 281.56,141.23 256.5,138.72C231.44,136.21 226.58,179.93 236.32,196.09C240.19,202.51 245.35,204.76 250.17,205.19C252.1,203.84 254.01,202.58 255.82,201.37C241.96,198.09 240.31,178.21 242.1,169.78L242.09,169.77Z" style="fill:white;fill-rule:nonzero;"/>
                            <path d="M319.15,162.53C321.66,158.77 335.44,151.25 340.45,169.21C345.45,187.13 334.69,200 334.64,200.06C337.67,201.79 340.92,203.62 344.63,205.65C347.02,206.96 349.09,208.26 350.91,209.55C361.8,201.42 367.6,134.12 331.67,134.12C295.74,134.12 299.17,182.27 299.17,182.27C304.58,183.06 309.15,185.26 316.5,189.5C311.63,174.59 316.91,165.89 319.14,162.53L319.15,162.53Z" style="fill:white;fill-rule:nonzero;"/>
                            <path d="M340.46,169.21C335.45,151.25 321.66,158.77 319.16,162.53C316.92,165.89 311.65,174.59 316.52,189.5C321.13,192.16 326.9,195.64 334.66,200.06C334.71,200 345.47,187.14 340.47,169.21L340.46,169.21ZM320.01,167.29C320.01,167.29 329.69,154.66 338.33,168.96C338.33,168.96 329.5,164.15 320.01,167.29Z" style="fill:rgb(1,1,1);fill-rule:nonzero;"/>
                            <path d="M359.24,231.73C358.92,233.96 358.36,237.03 358.17,241.22C360.99,236.33 362.78,231.66 362.78,227.84C362.78,225.85 362.23,225.01 361.15,224.48C361.19,226.95 360.49,229.37 359.23,231.72L359.24,231.73Z" style="fill:rgb(32,33,33);fill-rule:nonzero;"/>
                            <path d="M359.24,231.73C358.92,233.96 358.36,237.03 358.17,241.22C360.99,236.33 362.78,231.66 362.78,227.84C362.78,225.85 362.23,225.01 361.15,224.48C361.19,226.95 360.49,229.37 359.23,231.72L359.24,231.73Z" style="fill:rgb(216,216,216);fill-rule:nonzero;"/>
                            <path d="M240.17,243.75C241.12,246.24 242.3,248.62 243.67,250.89C243.67,249.54 243.65,248.51 243.63,247.93C242.38,246.6 241.25,245.2 240.18,243.75L240.17,243.75Z" style="fill:rgb(32,33,33);fill-rule:nonzero;"/>
                            <path d="M240.17,243.75C241.12,246.24 242.3,248.62 243.67,250.89C243.67,249.54 243.65,248.51 243.63,247.93C242.38,246.6 241.25,245.2 240.18,243.75L240.17,243.75Z" style="fill:rgb(216,216,216);fill-rule:nonzero;"/>
                            <path d="M282.72,284.46C295.67,292.76 314.47,282.79 332.01,270.26C340.19,264.42 351.8,252.27 358.17,241.23C358.35,237.04 358.91,233.97 359.24,231.74C354.12,241.28 339.96,249.74 330.44,256.53C312.89,269.06 296.29,277.03 282.24,270.73C272.08,266.85 254.75,259.78 243.63,247.93C243.65,248.51 243.67,249.54 243.67,250.89C253.24,266.79 271.81,277.47 282.73,284.46L282.72,284.46Z" style="fill:white;fill-rule:nonzero;"/>
                            <path d="M282.72,284.46C295.67,292.76 314.47,282.79 332.01,270.26C340.19,264.42 351.8,252.27 358.17,241.23C358.35,237.04 358.91,233.97 359.24,231.74C354.12,241.28 339.96,249.74 330.44,256.53C312.89,269.06 296.29,277.03 282.24,270.73C272.08,266.85 254.75,259.78 243.63,247.93C243.65,248.51 243.67,249.54 243.67,250.89C253.24,266.79 271.81,277.47 282.73,284.46L282.72,284.46Z" style="fill:rgb(216,216,216);fill-rule:nonzero;"/>
                            <path d="M265.34,170.32C261.46,153.61 243.54,161.2 242.09,169.77C240.3,178.21 241.96,198.09 255.81,201.36C258.49,199.58 260.93,197.93 262.75,196.36C263.85,195.42 265.02,194.52 266.23,193.65C267.19,190.11 268.21,182.72 265.33,170.31L265.34,170.32ZM244.85,169.35C244.85,169.35 254.53,156.72 263.17,171.02C263.17,171.02 254.34,166.21 244.85,169.35Z" style="fill:rgb(1,1,1);fill-rule:nonzero;"/>
                            <path d="M419,442.84C419,442.84 418.36,452.45 420.73,463.03C423.13,463.8 425.09,464.83 426.35,465.43C438.46,471.28 440.97,482.56 459.35,477.54C468.93,474.93 477.6,472.11 485.96,471.53C495.03,454.53 448.25,420.28 419,442.84Z" style="fill:rgb(32,33,33);fill-rule:nonzero;"/>
                            <path d="M244.85,169.35C254.35,166.21 263.17,171.02 263.17,171.02C254.53,156.72 244.85,169.35 244.85,169.35Z" style="fill:white;fill-rule:nonzero;"/>
                            <path d="M320.01,167.29C329.5,164.15 338.33,168.96 338.33,168.96C329.69,154.66 320.01,167.29 320.01,167.29Z" style="fill:white;fill-rule:nonzero;"/>
                            <path d="M244.07,235.79L245.03,234.53C245.27,234.71 269.1,252.66 291.18,250.52C313.55,248.36 342.43,235.68 350.98,228.18L352.02,229.37C357.94,225.29 360.95,222.24 360.79,221.69C359.8,217.76 356.76,213.7 350.91,209.54C349.09,208.25 347.02,206.95 344.63,205.64C340.93,203.61 337.67,201.78 334.64,200.05C326.88,195.63 321.11,192.15 316.5,189.49C309.15,185.25 304.58,183.05 299.17,182.27C296.15,181.83 292.87,181.82 288.65,182.15C288.65,182.15 283.85,183.82 277.82,186.79C274.13,188.61 270,190.92 266.22,193.64C265.02,194.5 263.85,195.4 262.74,196.35C260.92,197.91 258.47,199.57 255.8,201.35C253.99,202.56 252.08,203.82 250.15,205.17C241.98,210.88 233.75,218 233.82,227.84C233.86,227.89 237.7,231.43 244.06,235.78L244.07,235.79Z" style="fill:rgb(254,206,51);fill-rule:nonzero;"/>
                            <path d="M282.24,270.73C296.29,277.03 312.89,269.06 330.44,256.53C339.95,249.73 354.11,241.27 359.24,231.74C360.5,229.39 361.2,226.97 361.16,224.5C361.14,223.58 361.05,222.65 360.81,221.71C360.97,222.25 357.96,225.3 352.04,229.39L353.1,230.6C344.34,238.28 315.3,251.42 291.5,253.71C290.14,253.84 288.78,253.9 287.42,253.9C265.47,253.9 244.07,237.8 243.12,237.07L244.09,235.79C237.73,231.44 233.89,227.91 233.85,227.85C233.81,227.79 233.86,227.93 233.86,227.97C233.88,228.86 233.97,229.81 234.13,230.81C234.35,232.1 234.7,233.42 235.21,234.8C236.42,238.03 238.15,240.99 240.19,243.75C241.26,245.2 242.4,246.6 243.64,247.93C254.77,259.78 272.1,266.85 282.25,270.73L282.24,270.73Z" style="fill:rgb(232,171,36);fill-rule:nonzero;"/>
                            <path d="M235.66,575.88C231.86,569.24 227.08,561.97 220.98,553.96C178.37,497.98 173.91,460.48 137.43,462.06C130.85,462.34 126.07,463.32 122.57,464.76C106.96,471.18 116.75,486.99 106.52,493.81C100.68,497.7 93.04,498.7 85.43,500.25C85.43,500.25 62.24,513.02 75.09,535.3C87.95,557.57 87.05,557.73 82.57,592.59C78.08,627.44 248.22,621.71 248.22,621.71C249.64,612.99 248.4,598.16 235.65,575.89L235.66,575.88ZM143.47,472.17C166.33,480.7 171.57,500.25 171.57,500.25C171.57,500.25 135.44,462.01 122.47,494.91C122.47,494.91 120.61,463.63 143.47,472.17Z" style="fill:rgb(254,206,51);fill-rule:nonzero;"/>
                            <path d="M82.58,592.58C87.07,557.73 87.96,557.56 75.1,535.29C62.24,513.02 85.44,500.24 85.44,500.24C76.72,502.02 68.05,504.53 62.25,513.01C51.39,528.88 57.24,543.92 62.25,562.3C67.26,580.68 55.98,583.19 50.14,595.3C46.13,603.62 23.76,641.8 178.39,644.18C241.89,645.15 242.51,632.42 244.39,631.65C244.39,631.65 247.12,628.55 248.24,621.69C249.36,614.83 78.1,627.42 82.59,592.57L82.58,592.58Z" style="fill:rgb(232,171,36);fill-rule:nonzero;"/>
                            <path d="M443.31,627.88C482.25,598.61 562.84,564.48 532.92,525.93C530.97,525.12 529.22,523.88 527.85,521.82C519.66,509.54 524.26,489.27 509.52,478.24C509.22,478.01 508.95,477.76 508.63,477.54C502.38,473.26 496.26,471.6 490.01,471.43C488.66,471.39 487.3,471.43 485.94,471.52C477.58,472.1 468.91,474.92 459.33,477.53C440.95,482.54 438.44,471.26 426.33,465.42C425.07,464.81 423.12,463.79 420.71,463.02C408.29,459.04 383.64,461.96 378.35,565.7C378.24,567.86 378.14,570.06 378.04,572.3C377.76,579.02 377.56,586.13 377.44,593.67C377.29,603.28 377.47,611.4 377.86,618.35C378.55,630.64 379.94,639.16 381.55,645.07C388.2,647.38 410.84,652.27 443.29,627.88L443.31,627.88ZM415.24,480.7C434.79,476.96 441.67,496.4 441.67,496.4C441.67,496.4 411.41,473.96 394.42,536.78C394.42,536.78 395.7,484.43 415.25,480.69L415.24,480.7Z" style="fill:rgb(254,206,51);fill-rule:nonzero;"/>
                            <path d="M532.92,525.93C562.84,564.48 482.25,598.61 443.31,627.88C410.86,652.27 388.22,647.38 381.57,645.07C385.06,657.89 389.55,658.59 389.99,659.68C389.99,659.68 411.71,678.9 467.69,636.29C481.69,625.63 494.54,617.36 505.9,610.38C539.98,589.45 560.77,580.1 559.59,552.74C558.29,522.74 542.84,530.03 532.91,525.93L532.92,525.93Z" style="fill:rgb(232,171,36);fill-rule:nonzero;"/>
                            <path d="M323.37,69.66C255.57,59.19 241.5,108.26 241.5,108.26C263.23,81.44 323.37,69.66 323.37,69.66Z" style="fill:rgb(74,74,76);fill-rule:nonzero;"/>
                            <path d="M187.08,342.68C205.97,332.89 229.26,286.53 220.48,256.62C220.48,256.62 215.96,299.46 181.98,330.74C154.05,356.45 147.7,378.27 147.7,378.27C147.7,378.27 173.75,349.6 187.08,342.69L187.08,342.68Z" style="fill:rgb(74,74,76);fill-rule:nonzero;"/>
                            <path d="M441.66,496.41C441.66,496.41 434.79,476.97 415.23,480.71C395.68,484.45 394.4,536.8 394.4,536.8C411.4,473.98 441.65,496.42 441.65,496.42L441.66,496.41Z" style="fill:rgb(251,221,153);fill-rule:nonzero;"/>
                            <path d="M171.56,500.25C171.56,500.25 166.33,480.71 143.46,472.17C120.6,463.64 122.46,494.91 122.46,494.91C135.43,462.01 171.56,500.25 171.56,500.25Z" style="fill:rgb(251,221,153);fill-rule:nonzero;"/>
                            <path d="M291.18,250.53C269.1,252.67 245.27,234.72 245.03,234.54L244.07,235.8L243.1,237.08C244.05,237.81 265.45,253.91 287.4,253.91C288.76,253.91 290.12,253.85 291.48,253.72C315.28,251.43 344.32,238.29 353.08,230.61L352.02,229.4L350.98,228.21C342.43,235.71 313.55,248.39 291.18,250.55L291.18,250.53Z" style="fill:rgb(32,33,33);fill-rule:nonzero;"/>
                            <path d="M479.99,445.76C473.02,439.47 464.32,434.75 455.11,432.32C455.28,422.81 455.03,373.76 433.21,349.66C433.21,349.66 453.12,406.29 442.22,430.54C438.28,430.49 434.35,430.91 430.51,431.87C429.59,410.56 422.72,380.11 398.96,343.42C361.7,285.89 357.53,256.3 358.19,241.23C351.83,252.27 340.21,264.42 332.03,270.26C314.48,282.79 295.68,292.76 282.74,284.46C271.82,277.47 253.25,266.79 243.68,250.89C243.69,261.92 242.08,296.68 222.67,325.83C199.28,360.97 175.05,424.46 182.57,452.04C182.57,452.04 160.01,439.51 165.02,393.56C165.02,393.56 144.97,426.88 172.54,459.52C180.85,469.35 190.93,478.03 200.99,485.99C204.61,488.85 208.23,491.63 211.77,494.32C227.53,506.32 241.61,516.84 246.71,527.55C247.84,529.93 248.55,532.33 248.71,534.75C250.24,557.31 228.51,553.13 220.99,553.97C227.08,561.98 231.86,569.25 235.67,575.89C261.78,591.27 314.1,610.47 378.07,572.32C378.16,570.08 378.27,567.88 378.38,565.72C383.67,461.97 408.31,459.05 420.74,463.04C418.37,452.47 419.01,442.85 419.01,442.85C448.25,420.29 495.04,454.55 485.97,471.54C487.33,471.44 488.69,471.41 490.04,471.45L490.05,471.45C490.05,471.45 497.13,461.23 480.01,445.77L479.99,445.76Z" style="fill:white;fill-rule:nonzero;"/>
                            <path d="M287.18,192.08C299.6,193.01 297.46,237.48 292.5,239.36C280.6,243.89 238.34,226.22 245.52,219.08C250.89,213.74 278.17,191.41 287.17,192.08L287.18,192.08Z" style="fill:rgb(255,224,44);fill-rule:nonzero;"/>
                        </g>
                    </g>
                </g>
            </g>
        </g>
    </g>
</svg>
