<?xml version="1.0" encoding="UTF-8" standalone="no"?>
<!DOCTYPE svg PUBLIC "-//W3C//DTD SVG 1.1//EN" "http://www.w3.org/Graphics/SVG/1.1/DTD/svg11.dtd">
<svg width="100%" height="100%" viewBox="0 0 129 23" version="1.1" xmlns="http://www.w3.org/2000/svg" xmlns:xlink="http://www.w3.org/1999/xlink" xml:space="preserve" xmlns:serif="http://www.serif.com/" style="fill-rule:evenodd;clip-rule:evenodd;stroke-linejoin:round;stroke-miterlimit:2;">
    <g transform="matrix(1,0,0,1,-3213.17,-6640.48)">
        <g transform="matrix(1,0,0,5.34676,1870.53,3032.23)">
            <g transform="matrix(0.927595,0,0,0.927595,526.659,7.32336)">
                <g id="Microsoft_365_-2022-.svg" serif:id="Microsoft_365_(2022).svg" transform="matrix(0.555401,0,0,0.103876,890.787,721.914)">
                    <g transform="matrix(1,0,0,1,-20,-22)">
                        <clipPath id="_clip1">
                            <rect x="0" y="0" width="40" height="44"/>
                        </clipPath>
                        <g clip-path="url(#_clip1)">
                            <g transform="matrix(1,0,0,1,-4,-2)">
                                <path d="M20.084,3.026L19.86,3.162C19.502,3.378 19.165,3.62 18.851,3.884L19.499,3.428L25,3.428L26,11L21,16L16,19.475L16,23.483C16,26.282 17.463,28.877 19.857,30.327L25.121,33.513L14,40L11.855,40L7.857,37.58C5.463,36.131 4,33.536 4,30.737L4,17.261C4,14.461 5.464,11.865 7.86,10.415L19.86,3.157C19.934,3.112 20.009,3.068 20.084,3.026Z" style="fill:url(#_Radial2);fill-rule:nonzero;"/>
                            </g>
                            <g transform="matrix(1,0,0,1,-4,-2)">
                                <path d="M20.084,3.026L19.86,3.162C19.502,3.378 19.165,3.62 18.851,3.884L19.499,3.428L25,3.428L26,11L21,16L16,19.475L16,23.483C16,26.282 17.463,28.877 19.857,30.327L25.121,33.513L14,40L11.855,40L7.857,37.58C5.463,36.131 4,33.536 4,30.737L4,17.261C4,14.461 5.464,11.865 7.86,10.415L19.86,3.157C19.934,3.112 20.009,3.068 20.084,3.026Z" style="fill:url(#_Linear3);fill-rule:nonzero;"/>
                            </g>
                            <g transform="matrix(1,0,0,1,-4,-2)">
                                <path d="M32,19L32,23.48C32,26.279 30.537,28.875 28.143,30.324L16.143,37.588C13.688,39.074 10.634,39.127 8.136,37.749L19.857,44.844C22.404,46.386 25.596,46.386 28.143,44.844L40.143,37.58C42.537,36.131 44,33.535 44,30.736L44,27.5L43,26L32,19Z" style="fill:url(#_Radial4);fill-rule:nonzero;"/>
                            </g>
                            <g transform="matrix(1,0,0,1,-4,-2)">
                                <path d="M32,19L32,23.48C32,26.279 30.537,28.875 28.143,30.324L16.143,37.588C13.688,39.074 10.634,39.127 8.136,37.749L19.857,44.844C22.404,46.386 25.596,46.386 28.143,44.844L40.143,37.58C42.537,36.131 44,33.535 44,30.736L44,27.5L43,26L32,19Z" style="fill:url(#_Linear5);fill-rule:nonzero;"/>
                            </g>
                            <g transform="matrix(1,0,0,1,-4,-2)">
                                <path d="M40.141,10.415L28.141,3.157C25.674,1.665 22.602,1.618 20.098,3.018L19.86,3.162C17.464,4.611 16,7.208 16,10.008L16,19.491L19.86,17.157C22.405,15.617 25.595,15.617 28.141,17.157L40.141,24.415C42.461,25.819 43.908,28.299 43.996,30.999C43.999,30.911 44,30.824 44,30.736L44,17.261C44,14.461 42.536,11.864 40.141,10.415Z" style="fill:url(#_Radial6);fill-rule:nonzero;"/>
                            </g>
                            <g transform="matrix(1,0,0,1,-4,-2)">
                                <path d="M40.141,10.415L28.141,3.157C25.674,1.665 22.602,1.618 20.098,3.018L19.86,3.162C17.464,4.611 16,7.208 16,10.008L16,19.491L19.86,17.157C22.405,15.617 25.595,15.617 28.141,17.157L40.141,24.415C42.461,25.819 43.908,28.299 43.996,30.999C43.999,30.911 44,30.824 44,30.736L44,17.261C44,14.461 42.536,11.864 40.141,10.415Z" style="fill:url(#_Linear7);fill-rule:nonzero;"/>
                            </g>
                            <g transform="matrix(1,0,0,1,-4,-2)">
                                <path d="M4.004,30.998L4.004,30.998Z" style="fill:url(#_Radial8);fill-rule:nonzero;"/>
                            </g>
                            <g transform="matrix(1,0,0,1,-4,-2)">
                                <path d="M4.004,30.998L4.004,30.998Z" style="fill:url(#_Linear9);fill-rule:nonzero;"/>
                            </g>
                        </g>
                    </g>
                </g>
                <g transform="matrix(0.922539,0,0,0.172542,-5810.67,50.8722)">
                    <path d="M7303.06,3896.15L7301.52,3896.15L7301.52,3887.26C7301.52,3886.56 7301.56,3885.7 7301.65,3884.68L7301.61,3884.68C7301.46,3885.28 7301.33,3885.71 7301.21,3885.97L7296.69,3896.15L7295.93,3896.15L7291.41,3886.04C7291.28,3885.74 7291.15,3885.29 7291.01,3884.68L7290.97,3884.68C7291.02,3885.21 7291.05,3886.08 7291.05,3887.28L7291.05,3896.15L7289.55,3896.15L7289.55,3882.9L7291.6,3882.9L7295.67,3892.14C7295.98,3892.85 7296.19,3893.38 7296.28,3893.73L7296.33,3893.73C7296.6,3893 7296.81,3892.46 7296.97,3892.1L7301.12,3882.9L7303.06,3882.9L7303.06,3896.15Z" style="fill:rgb(18,89,163);fill-rule:nonzero;"/>
                    <path d="M7307.12,3884.28C7306.85,3884.28 7306.62,3884.19 7306.43,3884.01C7306.24,3883.82 7306.14,3883.59 7306.14,3883.31C7306.14,3883.02 7306.24,3882.79 7306.43,3882.6C7306.62,3882.41 7306.85,3882.32 7307.12,3882.32C7307.4,3882.32 7307.63,3882.41 7307.83,3882.6C7308.02,3882.79 7308.12,3883.02 7308.12,3883.31C7308.12,3883.58 7308.02,3883.81 7307.83,3884C7307.63,3884.19 7307.4,3884.28 7307.12,3884.28ZM7307.86,3896.15L7306.34,3896.15L7306.34,3886.69L7307.86,3886.69L7307.86,3896.15Z" style="fill:rgb(18,89,163);fill-rule:nonzero;"/>
                    <path d="M7317.38,3895.72C7316.65,3896.16 7315.79,3896.37 7314.79,3896.37C7313.44,3896.37 7312.35,3895.93 7311.52,3895.06C7310.69,3894.18 7310.28,3893.04 7310.28,3891.64C7310.28,3890.08 7310.73,3888.83 7311.62,3887.89C7312.51,3886.94 7313.71,3886.47 7315.2,3886.47C7316.03,3886.47 7316.76,3886.62 7317.4,3886.93L7317.4,3888.48C7316.69,3887.99 7315.94,3887.74 7315.14,3887.74C7314.18,3887.74 7313.38,3888.09 7312.76,3888.78C7312.14,3889.47 7311.83,3890.39 7311.83,3891.51C7311.83,3892.62 7312.12,3893.5 7312.71,3894.14C7313.29,3894.78 7314.07,3895.1 7315.05,3895.1C7315.88,3895.1 7316.65,3894.82 7317.38,3894.28L7317.38,3895.72Z" style="fill:rgb(18,89,163);fill-rule:nonzero;"/>
                    <path d="M7324.61,3888.22C7324.34,3888.02 7323.96,3887.92 7323.46,3887.92C7322.81,3887.92 7322.27,3888.22 7321.84,3888.83C7321.4,3889.44 7321.19,3890.27 7321.19,3891.33L7321.19,3896.15L7319.67,3896.15L7319.67,3886.69L7321.19,3886.69L7321.19,3888.64L7321.22,3888.64C7321.44,3887.97 7321.77,3887.45 7322.21,3887.08C7322.66,3886.71 7323.15,3886.52 7323.7,3886.52C7324.09,3886.52 7324.4,3886.57 7324.61,3886.65L7324.61,3888.22Z" style="fill:rgb(18,89,163);fill-rule:nonzero;"/>
                    <path d="M7330.21,3896.37C7328.81,3896.37 7327.69,3895.93 7326.86,3895.05C7326.02,3894.16 7325.6,3892.99 7325.6,3891.53C7325.6,3889.94 7326.04,3888.7 7326.91,3887.81C7327.78,3886.91 7328.95,3886.47 7330.43,3886.47C7331.84,3886.47 7332.94,3886.9 7333.73,3887.77C7334.52,3888.64 7334.92,3889.84 7334.92,3891.38C7334.92,3892.89 7334.49,3894.1 7333.64,3895.01C7332.79,3895.92 7331.64,3896.37 7330.21,3896.37ZM7330.32,3887.74C7329.34,3887.74 7328.57,3888.07 7328.01,3888.74C7327.44,3889.4 7327.16,3890.31 7327.16,3891.48C7327.16,3892.6 7327.44,3893.48 7328.02,3894.13C7328.59,3894.78 7329.36,3895.1 7330.32,3895.1C7331.3,3895.1 7332.05,3894.78 7332.58,3894.15C7333.1,3893.51 7333.37,3892.61 7333.37,3891.44C7333.37,3890.26 7333.1,3889.34 7332.58,3888.7C7332.05,3888.06 7331.3,3887.74 7330.32,3887.74Z" style="fill:rgb(18,89,163);fill-rule:nonzero;"/>
                    <path d="M7336.77,3895.81L7336.77,3894.18C7337.59,3894.79 7338.5,3895.1 7339.49,3895.1C7340.82,3895.1 7341.49,3894.66 7341.49,3893.77C7341.49,3893.51 7341.43,3893.3 7341.32,3893.12C7341.21,3892.95 7341.05,3892.79 7340.86,3892.66C7340.66,3892.52 7340.44,3892.4 7340.17,3892.29C7339.91,3892.19 7339.63,3892.07 7339.33,3891.96C7338.91,3891.79 7338.54,3891.62 7338.22,3891.45C7337.91,3891.28 7337.64,3891.09 7337.43,3890.88C7337.22,3890.67 7337.06,3890.43 7336.95,3890.15C7336.84,3889.88 7336.79,3889.57 7336.79,3889.2C7336.79,3888.76 7336.89,3888.37 7337.09,3888.02C7337.3,3887.68 7337.57,3887.39 7337.9,3887.16C7338.24,3886.93 7338.63,3886.76 7339.07,3886.64C7339.5,3886.53 7339.95,3886.47 7340.41,3886.47C7341.23,3886.47 7341.96,3886.61 7342.61,3886.89L7342.61,3888.43C7341.91,3887.97 7341.11,3887.74 7340.21,3887.74C7339.92,3887.74 7339.67,3887.77 7339.44,3887.84C7339.21,3887.9 7339.02,3887.99 7338.85,3888.11C7338.69,3888.23 7338.56,3888.37 7338.47,3888.53C7338.38,3888.7 7338.34,3888.88 7338.34,3889.07C7338.34,3889.32 7338.38,3889.53 7338.47,3889.69C7338.56,3889.86 7338.69,3890.01 7338.87,3890.14C7339.04,3890.26 7339.25,3890.38 7339.49,3890.49C7339.74,3890.59 7340.02,3890.7 7340.34,3890.83C7340.76,3890.99 7341.13,3891.15 7341.46,3891.32C7341.8,3891.49 7342.08,3891.68 7342.31,3891.9C7342.55,3892.11 7342.73,3892.35 7342.85,3892.63C7342.98,3892.91 7343.04,3893.24 7343.04,3893.62C7343.04,3894.09 7342.94,3894.49 7342.73,3894.84C7342.53,3895.18 7342.25,3895.47 7341.91,3895.7C7341.56,3895.93 7341.16,3896.1 7340.72,3896.21C7340.27,3896.32 7339.79,3896.37 7339.3,3896.37C7338.33,3896.37 7337.48,3896.19 7336.77,3895.81Z" style="fill:rgb(18,89,163);fill-rule:nonzero;"/>
                    <path d="M7349.33,3896.37C7347.93,3896.37 7346.81,3895.93 7345.98,3895.05C7345.14,3894.16 7344.73,3892.99 7344.73,3891.53C7344.73,3889.94 7345.16,3888.7 7346.03,3887.81C7346.9,3886.91 7348.07,3886.47 7349.55,3886.47C7350.96,3886.47 7352.06,3886.9 7352.85,3887.77C7353.65,3888.64 7354.04,3889.84 7354.04,3891.38C7354.04,3892.89 7353.61,3894.1 7352.76,3895.01C7351.91,3895.92 7350.76,3896.37 7349.33,3896.37ZM7349.44,3887.74C7348.47,3887.74 7347.69,3888.07 7347.13,3888.74C7346.56,3889.4 7346.28,3890.31 7346.28,3891.48C7346.28,3892.6 7346.57,3893.48 7347.14,3894.13C7347.71,3894.78 7348.48,3895.1 7349.44,3895.1C7350.42,3895.1 7351.17,3894.78 7351.7,3894.15C7352.23,3893.51 7352.49,3892.61 7352.49,3891.44C7352.49,3890.26 7352.23,3889.34 7351.7,3888.7C7351.17,3888.06 7350.42,3887.74 7349.44,3887.74Z" style="fill:rgb(18,89,163);fill-rule:nonzero;"/>
                    <path d="M7361.14,3883.47C7360.84,3883.31 7360.51,3883.22 7360.13,3883.22C7359.07,3883.22 7358.54,3883.89 7358.54,3885.23L7358.54,3886.69L7360.76,3886.69L7360.76,3887.98L7358.54,3887.98L7358.54,3896.15L7357.04,3896.15L7357.04,3887.98L7355.42,3887.98L7355.42,3886.69L7357.04,3886.69L7357.04,3885.15C7357.04,3884.16 7357.32,3883.38 7357.9,3882.8C7358.47,3882.23 7359.18,3881.94 7360.04,3881.94C7360.5,3881.94 7360.87,3881.99 7361.14,3882.1L7361.14,3883.47Z" style="fill:rgb(18,89,163);fill-rule:nonzero;"/>
                    <path d="M7366.78,3896.06C7366.42,3896.26 7365.95,3896.36 7365.36,3896.36C7363.71,3896.36 7362.88,3895.43 7362.88,3893.58L7362.88,3887.98L7361.25,3887.98L7361.25,3886.69L7362.88,3886.69L7362.88,3884.38L7364.39,3883.89L7364.39,3886.69L7366.78,3886.69L7366.78,3887.98L7364.39,3887.98L7364.39,3893.32C7364.39,3893.95 7364.5,3894.4 7364.72,3894.67C7364.93,3894.94 7365.29,3895.08 7365.79,3895.08C7366.17,3895.08 7366.5,3894.97 7366.78,3894.77L7366.78,3896.06Z" style="fill:rgb(18,89,163);fill-rule:nonzero;"/>
                    <path d="M7381.26,3892.4C7381.26,3893 7381.15,3893.54 7380.92,3894.03C7380.7,3894.52 7380.38,3894.94 7379.97,3895.29C7379.56,3895.64 7379.07,3895.91 7378.5,3896.1C7377.92,3896.29 7377.29,3896.38 7376.6,3896.38C7375.34,3896.38 7374.33,3896.14 7373.59,3895.66L7373.59,3894.04C7374.48,3894.74 7375.51,3895.09 7376.66,3895.09C7377.12,3895.09 7377.54,3895.03 7377.91,3894.91C7378.28,3894.8 7378.6,3894.63 7378.87,3894.41C7379.14,3894.18 7379.35,3893.91 7379.49,3893.6C7379.63,3893.29 7379.71,3892.93 7379.71,3892.54C7379.71,3890.81 7378.47,3889.94 7376.01,3889.94L7374.91,3889.94L7374.91,3888.66L7375.95,3888.66C7378.14,3888.66 7379.23,3887.84 7379.23,3886.22C7379.23,3884.71 7378.39,3883.96 7376.73,3883.96C7375.79,3883.96 7374.92,3884.28 7374.1,3884.9L7374.1,3883.43C7374.94,3882.93 7375.94,3882.68 7377.11,3882.68C7377.66,3882.68 7378.17,3882.75 7378.62,3882.91C7379.07,3883.06 7379.45,3883.28 7379.77,3883.56C7380.09,3883.83 7380.34,3884.16 7380.52,3884.55C7380.69,3884.94 7380.78,3885.37 7380.78,3885.84C7380.78,3887.58 7379.9,3888.7 7378.14,3889.2L7378.14,3889.24C7378.59,3889.29 7379,3889.4 7379.38,3889.57C7379.77,3889.74 7380.1,3889.96 7380.37,3890.23C7380.65,3890.5 7380.87,3890.82 7381.02,3891.18C7381.18,3891.55 7381.26,3891.96 7381.26,3892.4Z" style="fill:rgb(18,89,163);fill-rule:nonzero;"/>
                    <path d="M7392.1,3891.95C7392.1,3892.59 7391.99,3893.19 7391.79,3893.73C7391.58,3894.27 7391.29,3894.74 7390.92,3895.14C7390.55,3895.53 7390.11,3895.84 7389.6,3896.06C7389.08,3896.27 7388.53,3896.38 7387.93,3896.38C7387.27,3896.38 7386.67,3896.24 7386.14,3895.97C7385.62,3895.69 7385.17,3895.29 7384.8,3894.77C7384.44,3894.25 7384.16,3893.61 7383.97,3892.86C7383.78,3892.11 7383.68,3891.26 7383.68,3890.32C7383.68,3889.17 7383.81,3888.12 7384.06,3887.18C7384.32,3886.24 7384.68,3885.44 7385.15,3884.77C7385.63,3884.1 7386.19,3883.59 7386.86,3883.22C7387.53,3882.86 7388.27,3882.68 7389.09,3882.68C7390,3882.68 7390.73,3882.8 7391.29,3883.06L7391.29,3884.49C7390.6,3884.14 7389.88,3883.96 7389.12,3883.96C7388.53,3883.96 7388,3884.09 7387.53,3884.36C7387.05,3884.62 7386.64,3885 7386.31,3885.48C7385.97,3885.97 7385.71,3886.55 7385.53,3887.23C7385.34,3887.92 7385.25,3888.68 7385.25,3889.52L7385.29,3889.52C7385.9,3888.41 7386.91,3887.86 7388.31,3887.86C7388.89,3887.86 7389.41,3887.96 7389.88,3888.16C7390.34,3888.36 7390.74,3888.63 7391.07,3888.99C7391.4,3889.35 7391.65,3889.78 7391.83,3890.28C7392.01,3890.78 7392.1,3891.34 7392.1,3891.95ZM7390.55,3892.14C7390.55,3891.68 7390.49,3891.26 7390.37,3890.89C7390.26,3890.52 7390.09,3890.21 7389.87,3889.95C7389.65,3889.69 7389.38,3889.49 7389.06,3889.35C7388.74,3889.22 7388.38,3889.15 7387.97,3889.15C7387.59,3889.15 7387.24,3889.22 7386.93,3889.36C7386.6,3889.5 7386.33,3889.69 7386.09,3889.94C7385.86,3890.18 7385.68,3890.46 7385.54,3890.79C7385.41,3891.11 7385.34,3891.45 7385.34,3891.82C7385.34,3892.27 7385.41,3892.7 7385.54,3893.1C7385.67,3893.49 7385.85,3893.84 7386.08,3894.14C7386.32,3894.43 7386.6,3894.67 7386.92,3894.84C7387.24,3895 7387.6,3895.09 7388,3895.09C7388.38,3895.09 7388.73,3895.02 7389.04,3894.87C7389.36,3894.73 7389.62,3894.53 7389.85,3894.27C7390.07,3894.01 7390.24,3893.7 7390.36,3893.34C7390.49,3892.98 7390.55,3892.58 7390.55,3892.14Z" style="fill:rgb(18,89,163);fill-rule:nonzero;"/>
                    <path d="M7401.81,3892.1C7401.81,3892.75 7401.7,3893.34 7401.48,3893.86C7401.26,3894.38 7400.94,3894.83 7400.53,3895.21C7400.12,3895.59 7399.63,3895.88 7399.05,3896.08C7398.47,3896.28 7397.83,3896.38 7397.12,3896.38C7395.89,3896.38 7394.97,3896.2 7394.37,3895.83L7394.37,3894.22C7395.27,3894.8 7396.19,3895.09 7397.14,3895.09C7397.62,3895.09 7398.05,3895.02 7398.44,3894.88C7398.82,3894.74 7399.15,3894.54 7399.42,3894.28C7399.69,3894.03 7399.9,3893.73 7400.04,3893.37C7400.19,3893.01 7400.26,3892.62 7400.26,3892.2C7400.26,3891.33 7399.97,3890.66 7399.39,3890.17C7398.81,3889.68 7397.97,3889.43 7396.87,3889.43C7396.69,3889.43 7396.5,3889.44 7396.31,3889.44C7396.11,3889.45 7395.91,3889.46 7395.71,3889.47C7395.52,3889.47 7395.32,3889.49 7395.14,3889.5C7394.95,3889.51 7394.78,3889.53 7394.62,3889.54L7395.08,3882.9L7401.2,3882.9L7401.2,3884.27L7396.39,3884.27L7396.12,3888.16C7396.32,3888.14 7396.53,3888.14 7396.75,3888.12C7396.97,3888.12 7397.17,3888.11 7397.34,3888.11C7398.04,3888.11 7398.67,3888.2 7399.23,3888.39C7399.78,3888.57 7400.25,3888.84 7400.64,3889.18C7401.02,3889.52 7401.31,3889.94 7401.51,3890.44C7401.71,3890.93 7401.81,3891.49 7401.81,3892.1Z" style="fill:rgb(18,89,163);fill-rule:nonzero;"/>
                </g>
            </g>
        </g>
    </g>
    <defs>
        <radialGradient id="_Radial2" cx="0" cy="0" r="1" gradientUnits="userSpaceOnUse" gradientTransform="matrix(-11.7002,31.247,-54.5012,-20.4075,17.4186,10.6383)"><stop offset="0" style="stop-color:rgb(174,127,226);stop-opacity:1"/><stop offset="0.06" style="stop-color:rgb(174,127,226);stop-opacity:1"/><stop offset="1" style="stop-color:rgb(0,120,212);stop-opacity:1"/></radialGradient>
        <linearGradient id="_Linear3" x1="0" y1="0" x2="1" y2="0" gradientUnits="userSpaceOnUse" gradientTransform="matrix(-4.7606,-8.2338,8.2338,-4.7606,17.5119,37.8685)"><stop offset="0" style="stop-color:rgb(17,74,139);stop-opacity:1"/><stop offset="1" style="stop-color:rgb(0,120,212);stop-opacity:0"/></linearGradient>
        <radialGradient id="_Radial4" cx="0" cy="0" r="1" gradientUnits="userSpaceOnUse" gradientTransform="matrix(30.7198,-4.51832,2.98465,20.2925,10.4299,36.3511)"><stop offset="0" style="stop-color:rgb(213,157,255);stop-opacity:1"/><stop offset="0.13" style="stop-color:rgb(213,157,255);stop-opacity:1"/><stop offset="1" style="stop-color:rgb(94,67,143);stop-opacity:1"/></radialGradient>
        <linearGradient id="_Linear5" x1="0" y1="0" x2="1" y2="0" gradientUnits="userSpaceOnUse" gradientTransform="matrix(-5.1014,7.3148,-7.3148,-5.1014,40.3566,25.3768)"><stop offset="0" style="stop-color:rgb(73,52,116);stop-opacity:1"/><stop offset="1" style="stop-color:rgb(140,102,186);stop-opacity:0"/></linearGradient>
        <radialGradient id="_Radial6" cx="0" cy="0" r="1" gradientUnits="userSpaceOnUse" gradientTransform="matrix(-24.1583,-6.12555,10.3118,-40.6682,41.0552,26.504)"><stop offset="0" style="stop-color:rgb(80,230,255);stop-opacity:1"/><stop offset="0.06" style="stop-color:rgb(80,230,255);stop-opacity:1"/><stop offset="1" style="stop-color:rgb(67,109,205);stop-opacity:1"/></radialGradient>
        <linearGradient id="_Linear7" x1="0" y1="0" x2="1" y2="0" gradientUnits="userSpaceOnUse" gradientTransform="matrix(7.511,0,0,7.511,16.9758,3.05655)"><stop offset="0" style="stop-color:rgb(45,63,128);stop-opacity:1"/><stop offset="1" style="stop-color:rgb(67,109,205);stop-opacity:0"/></linearGradient>
        <radialGradient id="_Radial8" cx="0" cy="0" r="1" gradientUnits="userSpaceOnUse" gradientTransform="matrix(-24.1583,-6.12555,10.3118,-40.6682,41.0552,26.504)"><stop offset="0" style="stop-color:rgb(80,230,255);stop-opacity:1"/><stop offset="0.06" style="stop-color:rgb(80,230,255);stop-opacity:1"/><stop offset="1" style="stop-color:rgb(67,109,205);stop-opacity:1"/></radialGradient>
        <linearGradient id="_Linear9" x1="0" y1="0" x2="1" y2="0" gradientUnits="userSpaceOnUse" gradientTransform="matrix(7.511,0,0,7.511,16.9758,3.05655)"><stop offset="0" style="stop-color:rgb(45,63,128);stop-opacity:1"/><stop offset="1" style="stop-color:rgb(67,109,205);stop-opacity:0"/></linearGradient>
    </defs>
</svg>
