<?xml version="1.0" encoding="UTF-8" standalone="no"?>
<!DOCTYPE svg PUBLIC "-//W3C//DTD SVG 1.1//EN" "http://www.w3.org/Graphics/SVG/1.1/DTD/svg11.dtd">
<svg width="100%" height="100%" viewBox="0 0 37 37" version="1.1" xmlns="http://www.w3.org/2000/svg" xmlns:xlink="http://www.w3.org/1999/xlink" xml:space="preserve" xmlns:serif="http://www.serif.com/" style="fill-rule:evenodd;clip-rule:evenodd;stroke-linejoin:round;stroke-miterlimit:2;">
    <g transform="matrix(1,0,0,1,-1226.29,-3682.28)">
        <g transform="matrix(0.679507,0,0,3.74518,2003.65,2229.15)">
            <g transform="matrix(0.962231,0,0,0.588323,236.901,-310.451)">
                <g transform="matrix(1.06771,0,0,0.316838,-2276,0)">
                    <rect x="787.57" y="3747" width="53" height="53" style="fill:white;"/>
                </g>
                <g transform="matrix(0.0657301,0,0,0.0195052,-1423.63,1190.6)">
                    <path d="M367.2,412.5C335.9,434.9 297.5,448 256,448C214.5,448 176.1,434.9 144.8,412.5L202.8,354.5C218.6,363.1 236.8,368 256.1,368C275.4,368 293.5,363.1 309.4,354.5L367.4,412.5L367.2,412.5ZM457.9,413.3C491.7,369.9 511.9,315.3 511.9,256C511.9,196.7 491.7,142.1 457.9,98.7C466.9,86.2 465.8,68.6 454.5,57.4C443.2,46.2 425.8,45 413.3,54C369.9,20.2 315.3,0 256,0C196.7,0 142.1,20.2 98.7,54C86.2,45 68.6,46.1 57.4,57.4C46.2,68.7 45,86.2 54,98.7C20.2,142.1 0,196.7 0,256C0,315.3 20.2,369.9 54,413.3C45,425.8 46.1,443.4 57.4,454.6C68.7,465.8 86.2,467 98.7,458C142.1,491.8 196.7,512 256,512C315.3,512 369.9,491.8 413.3,458C425.8,467 443.4,465.9 454.6,454.6C465.8,443.3 467,425.8 458,413.3L457.9,413.3ZM412.4,367.2L354.4,309.2C363,293.4 367.9,275.2 367.9,255.9C367.9,236.6 363,218.5 354.4,202.6L412.4,144.6C434.9,176.1 448,214.5 448,256C448,297.5 434.9,335.9 412.5,367.2L412.4,367.2ZM367.2,99.5L309.2,157.5C293.4,148.9 275.2,144 255.9,144C236.6,144 218.5,148.9 202.6,157.5L144.6,99.5C176.1,77.1 214.5,64 256,64C297.5,64 335.9,77.1 367.2,99.5ZM157.5,309.3L99.5,367.3C77.1,335.9 64,297.5 64,256C64,214.5 77.1,176.1 99.5,144.8L157.5,202.8C148.9,218.6 144,236.8 144,256.1C144,275.4 148.9,293.5 157.5,309.4L157.5,309.3ZM208,256C208,229.668 229.668,208 256,208C282.332,208 304,229.668 304,256C304,282.332 282.332,304 256,304C229.668,304 208,282.332 208,256Z" style="fill-rule:nonzero;"/>
                </g>
            </g>
        </g>
    </g>
</svg>
