<?xml version="1.0" encoding="UTF-8" standalone="no"?>
<!DOCTYPE svg PUBLIC "-//W3C//DTD SVG 1.1//EN" "http://www.w3.org/Graphics/SVG/1.1/DTD/svg11.dtd">
<svg width="100%" height="100%" viewBox="0 0 70 37" version="1.1" xmlns="http://www.w3.org/2000/svg" xmlns:xlink="http://www.w3.org/1999/xlink" xml:space="preserve" xmlns:serif="http://www.serif.com/" style="fill-rule:evenodd;clip-rule:evenodd;stroke-linejoin:round;stroke-miterlimit:2;">
    <g transform="matrix(1,0,0,1,-2883.58,-6633.59)">
        <g transform="matrix(0.837748,0,0,4.61734,4018.13,3783.35)">
            <g id="mySQL.html" transform="matrix(1.06147,0,0,0.192588,-1312.9,621.238)">
                <g transform="matrix(1,0,0,1,-39,-20.5)">
                    <path d="M0.724,36.654L3.257,36.654L3.257,26.641L7.178,35.373C7.64,36.426 8.274,36.804 9.516,36.804C10.758,36.804 11.367,36.43 11.83,35.373L15.751,26.641L15.751,36.658L18.285,36.658L18.285,26.658C18.285,25.682 17.894,25.21 17.091,24.967C15.167,24.365 13.876,24.886 13.292,26.186L9.444,34.804L5.717,26.183C5.157,24.882 3.842,24.362 1.918,24.963C1.113,25.207 0.724,25.679 0.724,26.654L0.724,36.654ZM20.39,28.501L22.922,28.501L22.922,34.02C22.898,34.32 23.018,35.024 24.406,35.045C25.113,35.057 29.869,35.045 29.913,35.045L29.913,28.474L32.451,28.474C32.462,28.474 32.449,37.434 32.449,37.472C32.463,39.682 29.711,40.162 28.443,40.2L20.445,40.2L20.445,38.493L28.457,38.492C30.087,38.319 29.895,37.509 29.895,37.235L29.895,36.57L24.511,36.57C22.007,36.547 20.412,35.452 20.392,34.193C20.39,34.08 20.445,28.556 20.39,28.501Z" style="fill:rgb(0,97,138);fill-rule:nonzero;"/>
                    <path d="M74.913,22.141C73.356,22.099 72.166,22.244 71.15,22.673C70.861,22.795 70.4,22.798 70.353,23.161C70.512,23.328 70.537,23.577 70.663,23.782C70.906,24.175 71.316,24.703 71.681,24.979C72.081,25.28 72.492,25.604 72.921,25.866C73.683,26.331 74.534,26.597 75.267,27.063C75.7,27.337 76.129,27.683 76.551,27.994C76.76,28.147 76.9,28.385 77.171,28.481L77.171,28.437C77.028,28.255 76.991,28.006 76.861,27.817L76.285,27.24C75.722,26.488 75.009,25.835 74.249,25.289C73.643,24.854 72.288,24.266 72.035,23.56L71.991,23.515C72.42,23.466 72.923,23.311 73.32,23.205C73.985,23.027 74.58,23.073 75.268,22.895L76.198,22.629L76.198,22.451C75.851,22.094 75.603,21.622 75.224,21.299C74.233,20.453 73.15,19.609 72.037,18.904C71.419,18.513 70.655,18.26 70,17.929C69.78,17.817 69.392,17.759 69.248,17.574C68.904,17.135 68.716,16.577 68.451,16.07C67.895,14.998 67.349,13.828 66.857,12.7C66.521,11.932 66.301,11.173 65.883,10.483C63.873,7.174 61.708,5.176 58.357,3.213C57.643,2.795 56.785,2.63 55.877,2.415L54.416,2.326C54.119,2.202 53.81,1.837 53.53,1.66C52.42,0.957 49.572,-0.57 48.749,1.435C48.23,2.703 49.525,3.94 49.989,4.583C50.314,5.034 50.731,5.539 50.963,6.046C51.115,6.379 51.142,6.713 51.273,7.066C51.594,7.931 51.874,8.879 52.291,9.682C52.501,10.088 52.733,10.516 52.999,10.879C53.162,11.102 53.442,11.2 53.486,11.544C53.213,11.928 53.197,12.522 53.043,13.007C52.351,15.192 52.612,17.908 53.618,19.525C53.928,20.021 54.655,21.086 55.655,20.678C56.53,20.321 56.331,19.215 56.585,18.239C56.641,18.018 56.607,17.856 56.718,17.707L56.718,17.752L57.515,19.348C58.104,20.299 59.151,21.293 60.038,21.964C60.498,22.312 60.864,22.914 61.455,23.117L61.455,23.073L61.411,23.073C61.295,22.892 61.115,22.818 60.968,22.674C60.621,22.334 60.236,21.911 59.949,21.521C59.142,20.424 58.43,19.224 57.78,17.974C57.47,17.378 57.2,16.72 56.939,16.112C56.839,15.878 56.84,15.524 56.63,15.403C56.343,15.848 55.921,16.207 55.7,16.733C55.345,17.573 55.299,18.597 55.169,19.659C55.091,19.687 55.125,19.668 55.08,19.704C54.464,19.555 54.246,18.919 54.017,18.374C53.438,16.994 53.331,14.774 53.84,13.186C53.972,12.776 54.569,11.482 54.328,11.103C54.212,10.724 53.832,10.501 53.619,10.215C53.356,9.858 53.093,9.387 52.91,8.974C52.436,7.899 52.214,6.692 51.715,5.604C51.476,5.085 51.073,4.559 50.741,4.101C50.374,3.589 49.963,3.212 49.679,2.597C49.578,2.377 49.44,2.026 49.59,1.799C49.605,1.734 49.637,1.674 49.684,1.627C49.731,1.58 49.791,1.547 49.856,1.533C50.113,1.335 50.828,1.598 51.096,1.71C51.805,2.006 52.398,2.287 53,2.686C53.289,2.874 53.58,3.248 53.929,3.351L54.328,3.351C54.95,3.495 55.649,3.396 56.23,3.573C57.26,3.886 58.182,4.374 59.02,4.903C61.572,6.516 63.658,8.813 65.085,11.557C65.315,11.998 65.414,12.419 65.616,12.887C66.025,13.827 66.538,14.802 66.945,15.724C67.35,16.645 67.744,17.574 68.317,18.34C68.618,18.742 69.781,18.959 70.309,19.182C70.68,19.339 71.286,19.503 71.638,19.714C72.308,20.119 72.957,20.602 73.586,21.045C73.9,21.267 74.866,21.753 74.914,22.153L74.913,22.141Z" style="fill:rgb(0,97,138);fill-rule:nonzero;"/>
                    <path d="M55.124,5.249C54.799,5.243 54.57,5.285 54.327,5.338L54.327,5.383L54.371,5.383C54.526,5.701 54.799,5.906 54.99,6.181L55.433,7.111L55.478,7.067C55.752,6.874 55.878,6.564 55.876,6.092C55.766,5.976 55.75,5.831 55.654,5.692C55.528,5.508 55.279,5.404 55.124,5.249Z" style="fill:rgb(0,97,138);"/>
                    <path d="M34.404,36.654L41.686,36.654C42.538,36.654 43.367,36.475 44.025,36.166C45.121,35.662 45.657,34.979 45.657,34.085L45.657,32.231C45.657,31.5 45.048,30.817 43.855,30.362C43.221,30.117 42.442,29.988 41.687,29.988L38.618,29.988C37.595,29.988 37.108,29.678 36.986,28.996C36.962,28.915 36.962,28.845 36.962,28.768L36.962,27.614C36.962,27.549 36.962,27.483 36.986,27.402C37.108,26.882 37.376,26.735 38.277,26.65C38.35,26.65 38.448,26.634 38.521,26.634L45.754,26.634L45.754,24.943L38.643,24.943C37.62,24.943 37.084,25.008 36.597,25.154C35.085,25.626 34.428,26.378 34.428,27.679L34.428,29.159C34.428,30.297 35.719,31.273 37.886,31.5C38.13,31.516 38.373,31.532 38.617,31.532L41.247,31.532C41.344,31.532 41.442,31.532 41.515,31.549C42.318,31.614 42.66,31.76 42.903,32.053C43.053,32.203 43.098,32.346 43.098,32.504L43.098,33.983C43.098,34.162 42.977,34.39 42.733,34.585C42.514,34.78 42.149,34.91 41.661,34.943C41.564,34.943 41.491,34.959 41.394,34.959L34.404,34.959L34.404,36.654ZM61.457,33.711C61.457,35.451 62.748,36.427 65.353,36.622C65.597,36.641 65.84,36.651 66.084,36.654L72.684,36.654L72.684,34.963L66.036,34.963C64.55,34.963 63.989,34.589 63.989,33.695L63.989,24.947L61.457,24.947L61.457,33.711ZM47.272,33.799L47.272,27.771C47.272,26.239 48.346,25.31 50.469,25.017C50.696,24.985 50.924,24.969 51.153,24.968L55.961,24.968C56.198,24.969 56.434,24.985 56.669,25.017C58.792,25.31 59.866,26.239 59.866,27.771L59.866,33.799C59.866,35.042 59.41,35.707 58.358,36.14L60.853,38.396L57.912,38.396L55.894,36.571L53.861,36.7L51.153,36.7C50.689,36.7 50.201,36.635 49.664,36.488C48.05,36.048 47.272,35.201 47.272,33.799ZM50.006,33.649C50.006,33.73 50.031,33.812 50.055,33.91C50.205,34.61 50.86,35.001 51.857,35.001L54.158,35.001L52.045,33.091L54.986,33.091L56.825,34.757C57.165,34.576 57.388,34.298 57.464,33.942C57.488,33.861 57.488,33.78 57.488,33.698L57.488,27.918C57.488,27.853 57.488,27.768 57.464,27.69C57.313,27.038 56.658,26.663 55.682,26.663L51.862,26.663C50.735,26.663 50.007,27.152 50.007,27.918L50.007,33.653L50.006,33.649Z" style="fill:rgb(228,142,0);fill-rule:nonzero;"/>
                    <path d="M73.873,34.915C73.873,36.031 74.754,36.784 75.74,36.784C76.725,36.784 77.606,36.031 77.606,34.915C77.606,33.798 76.725,33.046 75.74,33.046C74.754,33.046 73.873,33.798 73.873,34.915ZM77.188,34.915C77.188,35.762 76.541,36.395 75.739,36.395C74.929,36.395 74.29,35.762 74.29,34.915C74.29,34.068 74.927,33.434 75.739,33.434C76.54,33.434 77.188,34.068 77.188,34.915ZM76.242,35.982L76.66,35.982L76.048,35.045C76.377,35.01 76.625,34.85 76.625,34.462C76.625,34.028 76.351,33.849 75.824,33.849L74.992,33.849L74.992,35.982L75.351,35.982L75.351,35.06L75.684,35.06L76.242,35.982ZM75.351,34.76L75.351,34.147L75.764,34.147C75.978,34.147 76.237,34.187 76.237,34.437C76.237,34.736 76.003,34.761 75.734,34.761L75.351,34.76Z" style="fill:rgb(228,142,0);"/>
                </g>
            </g>
        </g>
    </g>
</svg>
