<?xml version="1.0" encoding="UTF-8" standalone="no"?>
<!DOCTYPE svg PUBLIC "-//W3C//DTD SVG 1.1//EN" "http://www.w3.org/Graphics/SVG/1.1/DTD/svg11.dtd">
<svg width="100%" height="100%" viewBox="0 0 89 12" version="1.1" xmlns="http://www.w3.org/2000/svg" xmlns:xlink="http://www.w3.org/1999/xlink" xml:space="preserve" xmlns:serif="http://www.serif.com/" style="fill-rule:evenodd;clip-rule:evenodd;stroke-linejoin:round;stroke-miterlimit:2;">
    <g transform="matrix(1,0,0,1,-2514.97,-6646.06)">
        <g transform="matrix(0.837748,0,0,4.61734,3659.16,3783.35)">
            <g id="oracle-logo.svg" transform="matrix(0.457964,0,0,0.0830907,-1312.9,621.238)">
                <g transform="matrix(1,0,0,1,-115.5,-15)">
                    <clipPath id="_clip1">
                        <rect x="0" y="0" width="231" height="30"/>
                    </clipPath>
                    <g clip-path="url(#_clip1)">
                        <g transform="matrix(1,0,0,1,-0.02,0)">
                            <path d="M99.61,19.52L114.85,19.52L106.8,6.52L92,30L85.27,30L103.27,1.83C104.072,0.682 105.387,-0.004 106.788,-0.004C108.167,-0.004 109.465,0.661 110.27,1.78L128.32,30L121.59,30L118.42,24.75L103,24.75L99.64,19.52M169.57,24.75L169.57,0.28L163.85,0.28L163.85,27.16C163.848,27.915 164.155,28.638 164.7,29.16C165.247,29.719 165.998,30.034 166.78,30.03L192.78,30.03L196.17,24.78L169.54,24.78M75,20.38C80.513,20.38 85.05,15.843 85.05,10.33C85.05,4.817 80.513,0.28 75,0.28L50,0.28L50,30L55.71,30L55.71,5.54L74.65,5.54C77.289,5.54 79.46,7.711 79.46,10.35C79.46,12.989 77.289,15.16 74.65,15.16L58.54,15.16L75.6,30L83.89,30L72.43,20.38L75,20.38M14.88,30L32.15,30C40.154,29.792 46.625,23.151 46.625,15.145C46.625,7.139 40.154,0.498 32.15,0.29L14.88,0.29C14.752,0.287 14.623,0.285 14.495,0.285C6.343,0.285 -0.365,6.993 -0.365,15.145C-0.365,23.297 6.343,30.005 14.495,30.005C14.623,30.005 14.752,30.003 14.88,30M31.76,24.77L15.26,24.77C10.102,24.604 5.95,20.315 5.95,15.155C5.95,9.995 10.102,5.706 15.26,5.54L31.76,5.54C31.863,5.537 31.967,5.535 32.07,5.535C37.347,5.535 41.69,9.878 41.69,15.155C41.69,20.432 37.347,24.775 32.07,24.775C31.967,24.775 31.863,24.773 31.76,24.77M140.25,30L157.88,30L161.22,24.77L140.64,24.77C140.537,24.773 140.433,24.775 140.33,24.775C135.053,24.775 130.71,20.432 130.71,15.155C130.71,9.878 135.053,5.535 140.33,5.535C140.433,5.535 140.537,5.537 140.64,5.54L157.39,5.54L160.77,0.29L140.25,0.29C140.122,0.287 139.993,0.285 139.865,0.285C131.713,0.285 125.005,6.993 125.005,15.145C125.005,23.297 131.713,30.005 139.865,30.005C139.993,30.005 140.122,30.003 140.25,30M210.12,24.77C205.828,24.772 202.029,21.9 200.86,17.77L225.28,17.77L228.64,12.53L200.86,12.53C202.026,8.398 205.827,5.525 210.12,5.53L226.88,5.53L230.23,0.28L209.73,0.28C201.726,0.488 195.255,7.129 195.255,15.135C195.255,23.141 201.726,29.782 209.73,29.99L227.36,29.99L230.71,24.76L210.11,24.76" style="fill:rgb(199,70,52);fill-rule:nonzero;"/>
                        </g>
                    </g>
                </g>
            </g>
        </g>
    </g>
</svg>
