<?xml version="1.0" encoding="UTF-8" standalone="no"?>
<!DOCTYPE svg PUBLIC "-//W3C//DTD SVG 1.1//EN" "http://www.w3.org/Graphics/SVG/1.1/DTD/svg11.dtd">
<svg width="100%" height="100%" viewBox="0 0 93 31" version="1.1" xmlns="http://www.w3.org/2000/svg" xmlns:xlink="http://www.w3.org/1999/xlink" xml:space="preserve" xmlns:serif="http://www.serif.com/" style="fill-rule:evenodd;clip-rule:evenodd;">
    <g transform="matrix(1,0,0,1,-3051.64,-6636.4)">
        <g transform="matrix(0.837748,0,0,4.61734,4197.62,3783.35)">
            <g transform="matrix(0.568656,0,0,0.126643,-1347.11,619.313)">
                <g transform="matrix(0.990105,0,0,0.933006,0.235053,1.56691)">
                    <path d="M38.6,12.499L32.798,12.499L32.798,6.664L38.915,6.664C41.154,6.664 42.274,7.651 42.274,9.627C42.274,11.542 41.048,12.5 38.6,12.5M42.77,6.596C41.97,5.884 40.862,5.528 39.433,5.528L31.124,5.574L31.124,19.534L32.798,19.534L32.783,13.591L38.966,13.591C40.516,13.591 41.737,13.235 42.628,12.523C43.518,11.811 43.964,10.823 43.964,9.559C43.964,8.296 43.566,7.308 42.771,6.596L42.77,6.596ZM53.606,16.602C53.446,17.059 53.173,17.468 52.812,17.79C52.062,18.522 50.917,18.887 49.379,18.887C47.989,18.887 46.923,18.537 46.179,17.82C45.435,17.103 45.062,16.157 45.062,14.964C45.062,14.343 45.16,13.791 45.354,13.31C45.548,12.829 45.831,12.423 46.201,12.092C46.971,11.391 48.03,11.04 49.379,11.04C52.367,11.04 53.862,12.348 53.862,14.964C53.862,15.585 53.777,16.131 53.612,16.602M53.915,11.452C52.895,10.522 51.385,10.052 49.384,10.052C47.494,10.052 46.033,10.527 45.003,11.477C44.073,12.337 43.603,13.497 43.603,14.958C43.603,16.408 44.083,17.578 45.043,18.468C45.573,18.948 46.191,19.296 46.896,19.511C47.602,19.726 48.429,19.834 49.379,19.834C51.369,19.834 52.879,19.374 53.925,18.454C54.855,17.614 55.325,16.454 55.325,14.958C55.325,13.458 54.855,12.288 53.915,11.447L53.915,11.452ZM66.574,17.006C66.574,18.885 64.891,19.824 61.524,19.824C60.495,19.824 59.628,19.759 58.924,19.628C58.22,19.497 57.648,19.281 57.208,18.979C56.869,18.75 56.591,18.441 56.399,18.079C56.199,17.709 56.069,17.244 56.009,16.679L57.575,16.664C57.575,17.404 57.849,17.948 58.398,18.298C58.986,18.718 60.028,18.928 61.524,18.928C63.877,18.928 65.054,18.338 65.054,17.159C65.054,16.469 64.654,15.995 63.87,15.734C63.71,15.684 62.759,15.552 61.02,15.337C59.282,15.123 58.19,14.93 57.761,14.76C56.832,14.39 56.368,13.725 56.368,12.766C56.368,11.826 56.783,11.126 57.618,10.667C58.028,10.477 58.54,10.33 59.156,10.224C59.771,10.119 60.484,10.067 61.294,10.067C64.534,10.067 66.155,11.084 66.155,13.117L64.665,13.117C64.665,11.687 63.525,10.967 61.248,10.967C60.089,10.967 59.224,11.117 58.655,11.402C58.085,11.687 57.801,12.137 57.801,12.737C57.801,13.297 58.185,13.702 58.955,13.952C59.405,14.082 60.439,14.232 62.057,14.402C63.507,14.532 64.501,14.717 65.04,14.952C66.071,15.352 66.585,16.032 66.585,16.99L66.574,17.006ZM72.727,19.552L72.09,19.642L71.692,19.672C70.672,19.672 69.942,19.525 69.486,19.229C69.029,18.933 68.809,18.415 68.809,17.679L68.809,11.301L66.956,11.301L66.956,10.364L68.8,10.364L68.815,7.354L70.243,7.354L70.243,10.364L72.73,10.364L72.73,11.316L70.243,11.301L70.243,17.5C70.243,17.961 70.365,18.28 70.61,18.45C70.855,18.62 71.292,18.713 71.922,18.713C72.012,18.723 72.112,18.72 72.222,18.703C72.389,18.673 72.554,18.635 72.717,18.59L72.732,19.54L72.727,19.552ZM82.605,17.437C82.215,17.757 81.771,18.001 81.271,18.172C80.772,18.343 80.197,18.422 79.548,18.422C76.561,18.422 75.068,17.189 75.068,14.722C75.068,13.574 75.45,12.675 76.215,12.025C76.979,11.376 78.055,11.051 79.444,11.051C80.842,11.051 81.903,11.379 82.628,12.033C83.352,12.687 83.714,13.564 83.714,14.663C83.714,15.861 83.344,16.785 82.605,17.434M85.143,10.367L83.715,10.367L83.7,11.942C83.07,11.302 82.62,10.898 82.35,10.728C81.55,10.288 80.516,10.069 79.246,10.069C77.387,10.069 75.967,10.494 74.988,11.343C74.058,12.123 73.594,13.252 73.594,14.73C73.594,15.46 73.712,16.111 73.947,16.68C74.182,17.249 74.525,17.742 74.975,18.141C75.956,18.96 77.343,19.37 79.135,19.37C81.287,19.37 82.814,18.782 83.715,17.604L83.715,19.234C83.715,20.274 83.388,21.078 82.733,21.648C82.079,22.218 81.001,22.498 79.502,22.498C78.092,22.498 77.088,22.298 76.489,21.916C76.039,21.618 75.729,21.1 75.559,20.364L74.089,20.364C74.249,21.392 74.689,22.136 75.388,22.595C76.209,23.124 77.589,23.389 79.539,23.389C83.269,23.389 85.138,22.002 85.138,19.229L85.138,10.371L85.143,10.367ZM92.868,11.293C92.438,11.223 92.039,11.193 91.67,11.193C89.322,11.193 88.149,12.481 88.149,15.055L88.149,19.532L86.736,19.532L86.721,10.371L88.149,10.385L88.149,12.02L88.224,12.02C88.464,11.376 88.844,10.887 89.363,10.555C89.932,10.233 90.781,10.072 91.91,10.072L92.869,10.072L92.869,11.302L92.868,11.293ZM94.196,14.372C94.376,13.331 94.781,12.525 95.409,11.954C95.82,11.624 96.284,11.376 96.804,11.211C97.323,11.046 97.903,10.963 98.558,10.963C99.827,10.963 100.857,11.311 101.667,12.007C102.477,12.703 102.873,13.492 102.873,14.372L94.196,14.372M103.012,11.546C102.512,11.044 101.892,10.674 101.152,10.433C100.412,10.192 99.553,10.072 98.553,10.072C96.703,10.072 95.268,10.502 94.247,11.362C93.226,12.222 92.717,13.392 92.717,14.873C92.717,16.354 93.207,17.523 94.187,18.398C95.247,19.358 96.737,19.838 98.671,19.838C99.441,19.838 100.152,19.75 100.807,19.576C101.462,19.402 102.034,19.155 102.524,18.836C103.384,18.219 103.928,17.456 104.159,16.551L102.615,16.551C102.085,18.118 100.766,18.901 98.658,18.901C97.169,18.901 96.025,18.518 95.226,17.752C94.536,17.096 94.192,16.245 94.192,15.2L104.373,15.2C104.373,13.646 103.923,12.428 103.008,11.55L103.012,11.546Z" style="fill:rgb(35,31,32);fill-rule:nonzero;"/>
                </g>
                <g transform="matrix(1.14553,0,0,1.13221,-15.667,-1.55308)">
                    <path d="M119.466,15.79C119.466,18.51 117.272,19.87 112.885,19.87C110.256,19.87 108.337,19.402 107.128,18.47C106.138,17.7 105.644,16.526 105.644,14.946L107.41,14.946C107.41,17.485 109.235,18.755 112.884,18.755C114.634,18.755 115.899,18.495 116.684,17.976C117.344,17.517 117.674,16.797 117.674,15.819C117.674,14.85 117.224,14.171 116.324,13.781C115.814,13.571 114.574,13.306 112.589,12.987C110.099,12.607 108.485,12.228 107.745,11.848C106.675,11.288 106.145,10.34 106.145,9.001C106.145,7.753 106.595,6.824 107.51,6.214C108.49,5.545 110.17,5.21 112.549,5.21C116.849,5.21 118.999,6.638 118.999,9.494L117.218,9.494C117.218,7.354 115.621,6.285 112.429,6.285C110.827,6.285 109.656,6.5 108.916,6.935C108.215,7.395 107.866,8.07 107.866,8.96C107.866,9.89 108.316,10.545 109.216,10.925C109.696,11.145 111.106,11.45 113.446,11.84C115.646,12.17 117.131,12.555 117.896,12.99C118.946,13.53 119.471,14.465 119.471,15.79L119.466,15.79ZM133.816,17.178C133.156,17.707 132.41,18.103 131.579,18.368C130.749,18.633 129.818,18.765 128.787,18.765C126.685,18.765 124.987,18.198 123.69,17.066C122.393,15.933 121.747,14.424 121.747,12.537C121.747,10.571 122.389,9.039 123.675,7.941C124.961,6.843 126.665,6.295 128.787,6.295C130.938,6.295 132.63,6.869 133.861,8.016C134.511,8.576 134.991,9.229 135.302,9.978C135.613,10.726 135.767,11.58 135.767,12.538C135.767,14.494 135.116,16.041 133.815,17.178M134.754,18.104C135.674,17.455 136.355,16.669 136.795,15.745C137.236,14.821 137.456,13.755 137.456,12.546C137.456,10.378 136.736,8.646 135.296,7.332C134.526,6.613 133.596,6.078 132.506,5.729C131.416,5.379 130.171,5.204 128.771,5.204C126.051,5.204 123.921,5.864 122.371,7.181C120.821,8.499 120.046,10.287 120.046,12.545C120.046,14.742 120.828,16.515 122.393,17.863C123.957,19.211 126.094,19.885 128.803,19.885C129.863,19.885 130.787,19.814 131.576,19.67C132.366,19.527 133.036,19.307 133.586,19.01L136.195,20.819L137.285,19.818L134.759,18.104L134.754,18.104ZM150.679,19.532L138.606,19.532L138.606,5.552L140.265,5.522L140.265,18.361L150.689,18.361L150.674,19.528L150.679,19.532Z" style="fill:rgb(51,103,145);fill-rule:nonzero;"/>
                </g>
                <g id="Postgresql_elephant.svg" transform="matrix(0.145341,0,0,0.118407,-5.21815,15.2056)">
                    <g transform="matrix(1,0,0,1,-216.036,-222.691)">
                        <clipPath id="_clip1">
                            <rect x="0" y="0" width="432.071" height="445.383"/>
                        </clipPath>
                        <g clip-path="url(#_clip1)">
                            <g id="Layer_x0020_3">
                                <path d="M323.205,324.227C326.038,300.626 325.189,297.165 342.768,300.988L347.231,301.38C360.748,301.995 378.43,299.206 388.818,294.38C411.18,284.004 424.44,266.68 402.39,271.232C352.093,281.608 348.635,264.577 348.635,264.577C401.746,185.774 423.948,85.741 404.784,61.255C352.514,-5.534 262.036,26.049 260.522,26.869L260.04,26.958C250.102,24.896 238.98,23.664 226.486,23.462C203.725,23.088 186.454,29.429 173.353,39.366C173.353,39.366 11.945,-27.132 19.454,122.994C21.051,154.93 65.231,364.649 117.924,301.304C137.183,278.141 155.795,258.556 155.795,258.556C165.037,264.696 176.102,267.828 187.707,266.703L188.604,265.938C188.323,268.814 188.447,271.627 188.963,274.957C175.391,290.124 179.379,292.787 152.24,298.373C124.783,304.032 140.914,314.107 151.443,316.74C164.211,319.933 193.748,324.456 213.711,296.516L212.916,299.704C218.241,303.964 217.881,330.323 218.636,349.156C219.392,367.99 220.653,385.565 224.492,395.927C228.331,406.287 232.861,432.977 268.528,425.333C298.337,418.945 321.128,409.751 323.205,324.226" style="fill-rule:nonzero;stroke:black;stroke-width:37.4px;"/>
                                <path d="M402.395,271.23C352.093,281.606 348.635,264.575 348.635,264.575C401.746,185.767 423.948,85.732 404.788,61.249C352.518,-5.536 262.036,26.049 260.526,26.869L260.04,26.956C250.102,24.893 238.98,23.664 226.48,23.46C203.719,23.087 186.454,29.427 173.353,39.362C173.353,39.362 11.942,-27.133 19.449,122.992C21.046,154.93 65.225,364.649 117.92,301.304C137.18,278.141 155.789,258.556 155.789,258.556C165.032,264.696 176.097,267.828 187.697,266.703L188.598,265.938C188.318,268.814 188.446,271.627 188.959,274.957C175.384,290.124 179.373,292.787 152.236,298.373C124.777,304.032 140.908,314.107 151.44,316.74C164.208,319.933 193.747,324.456 213.706,296.516L212.91,299.704C218.229,303.964 221.964,327.415 221.338,348.673C220.712,369.932 220.294,384.527 224.485,395.927C228.676,407.327 232.853,432.977 268.527,425.333C298.336,418.945 313.783,402.391 315.932,374.778C317.457,355.147 320.908,358.049 321.126,340.498L323.894,332.189C327.086,305.578 324.401,296.993 342.766,300.986L347.229,301.378C360.746,301.993 378.437,299.204 388.82,294.378C411.178,284.002 424.438,266.678 402.393,271.23L402.395,271.23Z" style="fill:rgb(51,103,145);fill-rule:nonzero;"/>
                                <path d="M215.866,286.484C214.481,336 216.214,385.861 221.059,397.979C225.907,410.097 236.282,433.667 271.959,426.024C301.765,419.634 312.61,407.268 317.316,379.973C320.782,359.891 327.464,304.119 328.321,292.692" style="fill:none;fill-rule:nonzero;stroke:white;stroke-width:12.47px;stroke-linecap:round;stroke-linejoin:round;"/>
                                <path d="M173.104,38.256C173.104,38.256 11.583,-27.76 19.092,122.365C20.689,154.303 64.871,364.029 117.565,300.681C136.821,277.515 154.236,259.346 154.236,259.346" style="fill:none;fill-rule:nonzero;stroke:white;stroke-width:12.47px;stroke-linecap:round;stroke-linejoin:round;"/>
                                <path d="M260.349,26.207C254.758,27.96 350.197,-8.682 404.436,60.624C423.595,85.108 401.393,185.143 348.283,263.953" style="fill:none;fill-rule:nonzero;stroke:white;stroke-width:12.47px;stroke-linecap:round;stroke-linejoin:round;"/>
                                <path d="M348.282,263.953C348.282,263.953 351.743,280.989 402.046,270.606C424.086,266.054 410.822,283.38 388.469,293.761C370.124,302.275 328.995,304.457 328.323,292.692C326.594,262.337 349.97,271.559 348.283,263.953C346.758,257.103 336.304,250.38 329.389,233.615C323.352,218.982 246.593,106.766 350.676,123.432C354.489,122.643 323.53,24.43 226.123,22.833C128.738,21.236 131.933,142.595 131.933,142.595" style="fill:none;fill-rule:nonzero;stroke:white;stroke-width:12.47px;stroke-linecap:round;stroke-linejoin:bevel;"/>
                                <path d="M188.604,274.334C175.027,289.5 179.02,292.163 151.881,297.751C124.422,303.411 140.555,313.484 151.084,316.116C163.852,319.311 193.391,323.834 213.35,295.887C219.428,287.378 213.314,273.801 204.965,270.34C200.931,268.669 195.537,266.575 188.604,274.334Z" style="fill:none;fill-rule:nonzero;stroke:white;stroke-width:12.47px;stroke-linecap:round;stroke-linejoin:round;"/>
                                <path d="M187.715,274.069C186.347,265.152 190.645,254.541 195.251,242.127C202.173,223.501 218.144,204.872 205.368,145.788C195.845,101.759 131.972,136.625 131.932,142.595C131.893,148.563 134.821,172.855 130.865,201.143C125.703,238.056 154.353,269.275 187.344,266.081" style="fill:none;fill-rule:nonzero;stroke:white;stroke-width:12.47px;stroke-linecap:round;stroke-linejoin:round;"/>
                                <path d="M172.517,141.7C172.229,143.739 176.25,149.18 181.493,149.907C186.727,150.637 191.207,146.385 191.491,144.348C191.775,142.309 187.759,140.063 182.514,139.333C177.277,138.602 172.795,139.666 172.518,141.7L172.517,141.7Z" style="fill:white;fill-rule:nonzero;stroke:white;stroke-width:4.16px;"/>
                                <path d="M331.941,137.543C332.225,139.582 328.209,145.023 322.965,145.75C317.727,146.48 313.247,142.228 312.96,140.191C312.683,138.152 316.7,135.906 321.939,135.176C327.178,134.446 331.657,135.509 331.941,137.544L331.941,137.543Z" style="fill:white;fill-rule:nonzero;stroke:white;stroke-width:2.08px;"/>
                                <path d="M350.676,123.432C351.539,139.426 347.231,150.32 346.688,167.346C345.884,192.094 358.487,220.42 339.497,248.781" style="fill:none;fill-rule:nonzero;stroke:white;stroke-width:12.47px;stroke-linecap:round;stroke-linejoin:round;"/>
                            </g>
                        </g>
                    </g>
                </g>
            </g>
        </g>
    </g>
</svg>
