<?xml version="1.0" encoding="UTF-8" standalone="no"?>
<!DOCTYPE svg PUBLIC "-//W3C//DTD SVG 1.1//EN" "http://www.w3.org/Graphics/SVG/1.1/DTD/svg11.dtd">
<svg width="100%" height="100%" viewBox="0 0 90 22" version="1.1" xmlns="http://www.w3.org/2000/svg" xmlns:xlink="http://www.w3.org/1999/xlink" xml:space="preserve" xmlns:serif="http://www.serif.com/" style="fill-rule:evenodd;clip-rule:evenodd;stroke-linejoin:round;stroke-miterlimit:2;">
    <g transform="matrix(1,0,0,1,-3411.77,-6564.22)">
        <g transform="matrix(0.628973,0,0,4.61734,4262,3706.33)">
            <g transform="matrix(0.233566,0,0,0.0318163,-1352.23,618.884)">
                <path d="M129,85C141.51,85 159.61,82.42 159.61,67.54C159.647,66.392 159.543,65.243 159.3,64.12L151.85,31.76C150.13,24.64 148.62,21.41 136.12,15.16C126.39,10.19 105.26,2 99,2C93.18,2 91.45,9.54 84.55,9.54C77.87,9.54 72.91,3.94 66.66,3.94C60.66,3.94 56.75,8.03 53.73,16.44C53.73,16.44 45.32,40.16 44.24,43.6C44.062,44.231 43.981,44.885 44,45.54C44,54.76 80.33,85 129,85M161.55,73.58C163.28,81.77 163.28,82.63 163.28,83.71C163.28,97.71 147.54,105.48 126.85,105.48C80,105.47 39.08,78.1 39.08,60C39.077,57.479 39.591,54.984 40.59,52.67C23.77,53.52 2,56.54 2,75.72C2,107.2 76.59,146 135.65,146C180.93,146 192.35,125.52 192.35,109.35C192.35,96.63 181.35,82.19 161.52,73.57" style="fill:rgb(238,0,0);fill-rule:nonzero;"/>
                <path d="M161.52,73.57C163.25,81.76 163.25,82.62 163.25,83.7C163.25,97.7 147.51,105.47 126.82,105.47C80,105.47 39.08,78.1 39.08,60C39.077,57.479 39.591,54.984 40.59,52.67L44.25,43.61C44.069,44.237 43.985,44.888 44,45.54C44,54.76 80.33,85 129,85C141.51,85 159.61,82.42 159.61,67.54C159.647,66.392 159.543,65.243 159.3,64.12L161.52,73.57Z" style="fill-rule:nonzero;"/>
                <path d="M581.24,94.3C581.24,106.19 588.39,111.97 601.43,111.97C605.445,111.87 609.435,111.306 613.32,110.29L613.32,96.51C610.837,97.297 608.245,97.688 605.64,97.67C600.27,97.67 598.28,95.99 598.28,90.94L598.28,69.8L613.84,69.8L613.84,55.6L598.28,55.6L598.28,37.6L581.28,41.28L581.28,55.6L570,55.6L570,69.8L581.25,69.8L581.24,94.3ZM528.24,94.62C528.24,90.94 531.93,89.15 537.5,89.15C540.905,89.17 544.295,89.593 547.6,90.41L547.6,97.56C544.352,99.334 540.701,100.24 537,100.19C531.54,100.19 528.27,98.09 528.27,94.62M533.47,112.18C539.47,112.18 544.31,110.92 548.83,107.87L548.83,111.24L565.65,111.24L565.65,75.58C565.65,62.02 556.51,54.58 541.26,54.58C532.74,54.58 524.32,56.58 515.26,60.68L521.36,73.2C527.88,70.46 533.36,68.78 538.19,68.78C545.19,68.78 548.81,71.51 548.81,77.09L548.81,79.82C544.689,78.753 540.447,78.222 536.19,78.24C521.88,78.24 513.26,84.24 513.26,94.97C513.26,104.75 521.04,112.21 533.45,112.21M441.01,111.27L459.1,111.27L459.1,82.42L489.39,82.42L489.39,111.24L507.48,111.24L507.48,37.62L489.43,37.62L489.43,65.91L459.14,65.91L459.14,37.62L441.05,37.62L441.01,111.27ZM372.12,83.37C372.12,75.37 378.43,69.27 386.74,69.27C391.069,69.177 395.277,70.721 398.52,73.59L398.52,93C395.341,95.984 391.097,97.576 386.74,97.42C378.54,97.42 372.12,91.32 372.12,83.33M398.73,111.2L415.56,111.2L415.56,33.94L398.56,37.62L398.56,58.55C394.233,56.097 389.334,54.827 384.36,54.87C368.17,54.87 355.44,67.38 355.44,83.37C355.438,83.497 355.437,83.623 355.437,83.75C355.437,99.248 368.19,112 383.687,112C383.725,112 383.762,112 383.8,112C389.164,112.026 394.397,110.332 398.73,107.17L398.73,111.2ZM321.54,68.5C326.9,68.5 331.42,71.97 333.21,77.33L310,77.33C311.68,71.76 315.89,68.5 321.57,68.5M292.83,83.47C292.83,99.67 306.08,112.29 323.11,112.29C332.47,112.29 339.31,109.76 346.36,103.87L335.1,93.87C332.47,96.61 328.58,98.08 323.96,98.08C318.026,98.247 312.571,94.726 310.28,89.25L349.93,89.25L349.93,85.05C349.93,67.38 338.05,54.66 321.85,54.66C321.706,54.658 321.563,54.657 321.419,54.657C305.746,54.657 292.849,67.554 292.849,83.227C292.849,83.308 292.849,83.389 292.85,83.47M263.49,53.08C269.49,53.08 272.85,56.86 272.85,61.39C272.85,65.92 269.48,69.7 263.49,69.7L245.61,69.7L245.61,53.08L263.49,53.08ZM227.49,111.24L245.58,111.24L245.58,84.42L259.35,84.42L273.24,111.24L293.43,111.24L277.23,81.79C285.635,78.372 291.147,70.144 291.11,61.07C291.11,47.82 280.7,37.62 265.11,37.62L227.52,37.62L227.49,111.24Z" style="fill-rule:nonzero;"/>
            </g>
        </g>
    </g>
</svg>
