<?xml version="1.0" encoding="UTF-8" standalone="no"?>
<!DOCTYPE svg PUBLIC "-//W3C//DTD SVG 1.1//EN" "http://www.w3.org/Graphics/SVG/1.1/DTD/svg11.dtd">
<svg width="100%" height="100%" viewBox="0 0 21 21" version="1.1" xmlns="http://www.w3.org/2000/svg" xmlns:xlink="http://www.w3.org/1999/xlink" xml:space="preserve" xmlns:serif="http://www.serif.com/" style="fill-rule:evenodd;clip-rule:evenodd;stroke-linejoin:round;stroke-miterlimit:2;">
    <g transform="matrix(1,0,0,1,-1189.71,-2241.16)">
        <g transform="matrix(0.936585,0,0,3.53216,2914.83,-90.117)">
            <g transform="matrix(1,0,0,1,0,-0.0408015)">
                <g transform="matrix(1.06771,0,0,0.283113,-6698.93,-72.357)">
                    <circle cx="4559.17" cy="2597.17" r="10.168" style="fill:rgb(15,118,176);"/>
                </g>
                <g transform="matrix(0.0268448,0,0,0.00711817,-1837.08,661.113)">
                    <path d="M438.6,105.4C451.1,117.9 451.1,138.2 438.6,150.7L182.6,406.7C170.1,419.2 149.8,419.2 137.3,406.7L9.3,278.7C-3.2,266.2 -3.2,245.9 9.3,233.4C21.8,220.9 42.1,220.9 54.6,233.4L160,338.7L393.4,105.4C405.9,92.9 426.2,92.9 438.7,105.4L438.6,105.4Z" style="fill:white;fill-rule:nonzero;"/>
                </g>
            </g>
        </g>
    </g>
</svg>
