<?xml version="1.0" encoding="UTF-8" standalone="no"?>
<!DOCTYPE svg PUBLIC "-//W3C//DTD SVG 1.1//EN" "http://www.w3.org/Graphics/SVG/1.1/DTD/svg11.dtd">
<svg width="100%" height="100%" viewBox="0 0 68 37" version="1.1" xmlns="http://www.w3.org/2000/svg" xmlns:xlink="http://www.w3.org/1999/xlink" xml:space="preserve" xmlns:serif="http://www.serif.com/" style="fill-rule:evenodd;clip-rule:evenodd;stroke-linejoin:round;stroke-miterlimit:2;">
    <g transform="matrix(1,0,0,1,-2705.03,-6633.59)">
        <g transform="matrix(0.837748,0,0,4.61734,3838.65,3783.35)">
            <g transform="matrix(1.10462,0,0,0.200417,-1353.52,617.238)">
                <path d="M21.418,17.152L14.089,19.516L7.721,22.299L5.937,22.767C5.485,23.193 5.004,23.625 4.494,24.065C3.933,24.548 3.404,24.987 3.002,25.305C2.475,25.735 1.989,26.213 1.549,26.73C1.094,27.266 0.731,27.874 0.477,28.527C0.326,28.98 0.287,29.462 0.362,29.934C0.438,30.405 0.626,30.852 0.911,31.237C1.666,32.335 3.166,33.449 4.911,34.21C6.055,34.681 7.232,35.072 8.432,35.378C10.901,35.93 13.411,36.282 15.938,36.432C16.261,36.45 16.585,36.45 16.909,36.432C17.173,35.999 17.413,35.551 17.625,35.09C18.854,32.608 19.742,30.28 20.221,28.302C20.561,26.75 20.782,25.174 20.883,23.589C20.923,23.056 20.939,21.279 20.907,20.674C20.869,19.812 20.776,18.953 20.628,18.103C20.609,18.029 20.603,17.953 20.61,17.877C20.934,17.759 21.264,17.659 21.599,17.579L21.42,17.164L21.418,17.152ZM19.742,18.124C19.809,18.124 19.987,19.804 20.033,20.87C20.05,20.993 20.05,21.118 20.033,21.241C19.988,21.241 19.094,20.722 18.461,20.327C17.908,19.983 16.846,19.293 16.689,19.163C16.636,19.121 16.642,19.119 17.092,18.963C17.863,18.701 19.688,18.122 19.746,18.122L19.742,18.124ZM16.01,19.337C16.183,19.399 16.345,19.486 16.491,19.596C17.573,20.272 18.692,20.889 19.843,21.443C20.045,21.531 20.073,21.497 19.599,21.816C18.393,22.6 17.12,23.277 15.794,23.839C15.526,23.957 15.298,24.053 15.29,24.053C15.302,23.951 15.324,23.85 15.357,23.753C15.713,22.499 15.911,21.206 15.946,19.904C15.946,19.356 15.946,19.354 16.002,19.34L16.01,19.337ZM15.241,19.628C15.266,20.161 15.256,20.694 15.211,21.225C15.113,22.033 14.942,22.831 14.703,23.609C14.642,23.809 14.586,23.985 14.575,23.995C14.207,23.687 13.863,23.354 13.544,22.996C13.149,22.549 12.811,22.056 12.535,21.529C12.41,21.29 12.307,21.041 12.226,20.784C12.311,20.722 15.229,19.606 15.254,19.628L15.241,19.628ZM11.623,21.038C11.627,21.036 11.632,21.036 11.637,21.038C11.67,21.102 11.699,21.169 11.721,21.237C11.954,21.817 12.26,22.366 12.632,22.871C13.011,23.366 13.439,23.823 13.909,24.234L14.182,24.466C14.216,24.496 14.228,24.492 13.326,24.831C12.278,25.231 11.138,25.618 9.83,26.029L8.894,26.329C8.843,26.347 8.859,26.317 9.005,26.091C9.852,24.701 10.586,23.245 11.199,21.738C11.294,21.497 11.384,21.255 11.401,21.201C11.406,21.169 11.421,21.139 11.443,21.115C11.464,21.09 11.492,21.072 11.524,21.062C11.554,21.046 11.588,21.037 11.623,21.036L11.623,21.038ZM10.514,21.491C10.353,21.877 10.172,22.255 9.972,22.623C9.437,23.657 8.845,24.674 8.06,25.915C7.925,26.129 7.8,26.325 7.784,26.351C7.767,26.377 7.745,26.377 7.658,26.209C7.46,25.807 7.316,25.379 7.233,24.939C7.154,24.397 7.164,23.845 7.263,23.306C7.336,22.964 7.331,22.97 7.495,22.889C8.191,22.533 10.49,21.469 10.514,21.489L10.514,21.491ZM20.065,21.874L20.065,22.108C20.051,23.483 19.943,24.856 19.74,26.217C19.706,26.431 19.678,26.616 19.676,26.616C19.676,26.616 19.518,26.572 19.329,26.514C18.447,26.238 17.594,25.876 16.783,25.436C16.335,25.202 15.902,24.94 15.488,24.65C15.488,24.65 15.724,24.524 15.998,24.382C17.039,23.851 18.049,23.264 19.026,22.625C19.365,22.401 19.872,22.038 19.985,21.94L20.065,21.874ZM6.34,23.494C6.363,23.494 6.357,23.535 6.322,23.737C6.298,23.877 6.27,24.136 6.26,24.326C6.208,25.089 6.377,25.851 6.748,26.522C6.859,26.748 6.95,26.934 6.95,26.938C6.91,26.972 3.248,28.032 2.106,28.335L1.442,28.517C1.402,28.529 1.398,28.517 1.414,28.427C1.539,27.629 2.16,26.568 3.028,25.684C3.556,25.131 4.169,24.666 4.845,24.304C5.408,23.987 6.28,23.506 6.345,23.485L6.357,23.485L6.34,23.494ZM14.971,25.019C15.074,25.066 15.175,25.12 15.272,25.179C16.602,25.912 18.028,26.46 19.51,26.808L19.637,26.836L19.462,26.932C18.727,27.331 16.305,28.329 13.833,29.25L13.05,29.541C13.01,29.56 12.968,29.574 12.924,29.581C12.924,29.581 13.027,29.382 13.152,29.15C13.837,27.888 14.419,26.575 14.894,25.223C14.931,25.113 14.963,25.023 14.967,25.023L14.971,25.019ZM14.091,25.305C14.064,25.391 14.032,25.476 13.994,25.558C13.432,26.872 12.79,28.15 12.073,29.388C11.871,29.747 11.695,30.043 11.687,30.041C11.679,30.039 11.514,29.943 11.316,29.823C10.218,29.177 9.239,28.353 8.419,27.385L8.323,27.265L8.829,27.127C10.487,26.689 12.111,26.134 13.689,25.466C13.905,25.374 14.093,25.302 14.093,25.307L14.091,25.305ZM19.561,27.193C19.561,27.315 19.282,28.441 19.048,29.258C18.846,29.943 18.689,30.478 18.386,31.426C18.253,31.846 18.138,32.187 18.13,32.185L18.057,32.171C16.518,31.906 15.01,31.486 13.558,30.917C13.173,30.763 12.614,30.518 12.585,30.49C12.825,30.36 13.073,30.245 13.326,30.144C15.847,29.056 18.459,27.816 19.353,27.285C19.414,27.241 19.482,27.208 19.555,27.187L19.561,27.193ZM6.932,27.621C6.946,27.633 6.24,28.633 5.255,29.997L4.356,31.243C4.207,31.442 3.983,31.782 3.854,31.977L3.622,32.333L3.374,32.133C3.004,31.812 2.659,31.465 2.342,31.093C1.904,30.579 1.588,29.974 1.418,29.324C1.359,29.062 1.357,28.924 1.418,28.912C1.478,28.9 2.978,28.537 4.356,28.214C5.127,28.036 6.018,27.83 6.336,27.754C6.655,27.679 6.92,27.619 6.922,27.621L6.932,27.621ZM7.64,27.888L7.818,28.088C8.56,28.925 9.437,29.636 10.412,30.192C10.519,30.246 10.618,30.313 10.708,30.392C10.668,30.418 7.277,31.606 5.721,32.145C4.839,32.448 4.106,32.696 4.106,32.696C4.068,32.674 4.031,32.65 3.995,32.624L3.892,32.552L4.052,32.325C4.57,31.582 5.222,30.763 6.649,29.064L7.628,27.9L7.64,27.888ZM12.06,31.009C12.06,31.009 12.311,31.091 12.612,31.209C13.282,31.46 13.968,31.671 14.664,31.84C15.686,32.086 16.724,32.264 17.77,32.373C17.894,32.383 17.956,32.397 17.938,32.409C17.92,32.42 17.086,32.702 16.487,32.888C15.536,33.183 12.628,34.034 10.258,34.709L9.422,34.944C9.37,34.954 9.184,34.906 9.184,34.883C9.276,34.754 9.374,34.631 9.479,34.513C10.285,33.557 11.035,32.557 11.727,31.518L12.06,31.009ZM11.082,31.037C11.082,31.037 10.696,31.666 10.006,32.742L9.269,33.892C9.156,34.07 8.991,34.339 8.9,34.491L8.738,34.771L8.656,34.749C8.454,34.695 7.057,34.206 6.688,34.062C6.248,33.89 5.818,33.695 5.4,33.477C4.96,33.241 4.401,32.892 4.445,32.878L6.129,32.423C8.551,31.768 9.899,31.392 10.771,31.121C10.936,31.071 11.072,31.031 11.076,31.035L11.082,31.037ZM17.974,32.634C17.996,32.69 17.098,35.152 16.763,35.933C16.691,36.108 16.662,36.15 16.624,36.148C16.531,36.148 15.227,35.965 14.44,35.845C13.06,35.645 10.749,35.246 10.165,35.106L10.03,35.076L10.858,34.892C12.632,34.493 13.481,34.293 14.347,34.024C15.461,33.685 16.549,33.27 17.605,32.782C17.72,32.726 17.839,32.676 17.96,32.634L17.974,32.634Z" style="fill:rgb(191,191,191);fill-rule:nonzero;"/>
                <path d="M13.866,0.26C13.743,0.246 11.777,0.947 10.514,1.458C8.798,2.143 7.474,2.802 6.655,3.371C6.362,3.569 6.109,3.82 5.91,4.11C5.888,4.169 5.877,4.231 5.878,4.294L6.622,4.989L8.394,5.548L12.591,6.29L17.396,7.107L17.445,6.708L17.402,6.708L16.771,6.61L16.642,6.386C15.988,5.23 15.257,3.82 14.853,2.856C14.538,2.142 14.268,1.408 14.046,0.66C13.943,0.294 13.933,0.26 13.876,0.26L13.866,0.26ZM13.773,0.542C13.773,0.542 13.8,0.7 13.822,0.881C13.921,1.667 14.101,2.441 14.361,3.19C14.563,3.789 14.563,3.757 14.324,3.689C13.769,3.533 11.238,3.104 9.404,2.856C9.109,2.816 8.863,2.78 8.859,2.776C8.855,2.772 10.179,2.057 10.776,1.778C11.541,1.427 13.622,0.57 13.775,0.542L13.773,0.542ZM8.439,2.994L8.653,3.066C9.829,3.465 12.776,4.018 14.405,4.152C14.589,4.168 14.744,4.184 14.748,4.188C14.636,4.255 14.52,4.317 14.401,4.372C13.616,4.771 12.75,5.236 12.153,5.606C12.04,5.683 11.921,5.75 11.795,5.805L11.537,5.765L11.315,5.729L10.758,5.192C9.781,4.254 9.02,3.533 8.725,3.255L8.439,2.994ZM8.221,3.166L9,4.128C9.428,4.657 9.858,5.182 9.953,5.294C10.013,5.36 10.069,5.431 10.118,5.506C10.096,5.522 8.99,5.306 8.403,5.176C7.815,5.046 7.551,4.977 7.179,4.857L6.877,4.761L6.877,4.687C6.877,4.318 7.351,3.773 8.15,3.216L8.221,3.168L8.221,3.166ZM14.853,4.477C14.877,4.477 14.902,4.525 14.97,4.677C15.16,5.076 15.747,6.196 15.889,6.41C15.935,6.48 16.01,6.486 15.229,6.36C13.354,6.061 12.746,5.961 12.746,5.949C12.784,5.916 12.826,5.889 12.871,5.867C13.469,5.535 14.034,5.148 14.559,4.711L14.825,4.489C14.832,4.482 14.841,4.478 14.851,4.477L14.853,4.477Z" style="fill:rgb(191,191,191);fill-rule:nonzero;"/>
                <path d="M5.94,4.036C5.904,4.11 5.885,4.191 5.885,4.274C5.885,4.356 5.904,4.437 5.94,4.511C6.075,4.743 6.25,4.949 6.459,5.12C6.459,5.12 8.913,7.496 9.214,7.848C10.578,9.405 11.169,10.936 11.232,13.053C11.266,14.416 10.967,15.768 10.36,16.992C9.199,19.47 6.777,22.214 3.021,25.262L3.572,25.083C4.202,24.655 4.859,24.269 5.54,23.927C8.486,22.363 11.541,21.01 14.681,19.875C19.86,17.951 28.382,15.682 33.23,14.956L33.734,14.88L33.658,14.76C33.318,14.223 32.948,13.707 32.548,13.213C31.462,11.893 30.129,10.794 28.62,9.976C26.452,8.778 23.641,7.844 20.087,7.143C19.414,7.011 17.943,6.761 16.746,6.576C14.209,6.176 12.574,5.921 10.768,5.609C10.12,5.497 9.153,5.338 8.511,5.21C8.016,5.106 7.527,4.976 7.046,4.821C6.642,4.661 6.063,4.507 5.94,4.044L5.94,4.036ZM7.367,5.406C7.435,5.423 7.503,5.444 7.569,5.47C7.771,5.539 8.051,5.621 8.376,5.709C8.6,5.771 8.844,5.835 9.107,5.909C9.44,5.993 9.712,6.065 9.712,6.069C9.748,6.11 10.318,7.866 10.499,8.552C10.572,8.81 10.627,9.026 10.622,9.032C10.569,8.966 10.523,8.895 10.485,8.82C9.744,7.587 8.775,6.503 7.629,5.625C7.486,5.51 7.367,5.412 7.367,5.408L7.367,5.406ZM10.094,6.15C10.194,6.159 10.294,6.176 10.392,6.2C11.335,6.4 13.016,6.729 14.104,6.909C14.216,6.922 14.326,6.946 14.433,6.981C14.389,7.02 14.338,7.052 14.284,7.075C14.102,7.165 13.367,7.6 13.121,7.764C12.561,8.128 12.036,8.542 11.553,9.002C11.392,9.161 11.256,9.291 11.252,9.291C11.227,9.226 11.206,9.159 11.19,9.091C10.931,8.173 10.601,7.277 10.201,6.41C10.16,6.329 10.124,6.245 10.092,6.16L10.094,6.15ZM14.889,7.049C14.922,7.059 14.98,7.249 15.091,7.648C15.296,8.468 15.385,9.312 15.355,10.156C15.355,10.385 15.331,10.597 15.323,10.629L15.305,10.687L15.018,10.595C14.429,10.409 13.464,10.128 12.639,9.902C12.169,9.774 11.785,9.659 11.785,9.649C12.093,9.308 12.42,8.985 12.764,8.68C13.327,8.189 14.839,7.025 14.893,7.043L14.889,7.049ZM15.271,7.103C15.287,7.087 17.564,7.476 18.597,7.672C19.368,7.818 20.482,8.049 20.549,8.071C20.581,8.085 20.466,8.147 20.097,8.313C18.831,8.858 17.615,9.51 16.464,10.264C16.179,10.451 15.943,10.605 15.939,10.605C15.933,10.489 15.933,10.372 15.939,10.256C15.939,9.233 15.733,8.221 15.333,7.278C15.305,7.22 15.282,7.159 15.265,7.097L15.271,7.103ZM21.152,8.253C21.133,8.497 21.093,8.739 21.031,8.976C20.829,9.792 20.296,11.002 19.638,12.14C19.569,12.269 19.491,12.393 19.406,12.512C19.291,12.463 19.179,12.405 19.073,12.338C18.374,11.939 17.649,11.588 16.901,11.288C16.677,11.196 16.498,11.116 16.478,11.106C16.458,11.096 18.22,9.908 19.162,9.347C19.917,8.908 21.13,8.247 21.152,8.259L21.152,8.253ZM21.572,8.319C21.622,8.319 22.632,8.59 23.154,8.746C24.438,9.125 25.697,9.58 26.925,10.11L27.328,10.291L27.044,10.357C24.866,10.836 22.732,11.489 20.662,12.31C20.498,12.376 20.357,12.43 20.347,12.43C20.375,12.334 20.413,12.241 20.462,12.152C21.025,11.005 21.386,9.772 21.532,8.504C21.53,8.442 21.544,8.379 21.572,8.323L21.572,8.319ZM11.545,10.605C11.561,10.589 12.328,10.767 12.756,10.884C13.386,11.06 14.726,11.504 14.726,11.537C14.726,11.571 14.578,11.671 14.399,11.821C13.674,12.42 12.986,13.047 12.138,13.846C11.89,14.083 11.68,14.275 11.668,14.275C11.656,14.275 11.654,14.241 11.668,14.199C11.79,13.099 11.765,11.988 11.591,10.894C11.574,10.8 11.564,10.703 11.561,10.607L11.545,10.605ZM27.714,10.619C27.726,10.631 27.357,11.198 27.129,11.523C26.795,11.997 26.311,12.618 25.207,13.989L23.754,15.802C23.534,16.078 23.35,16.303 23.35,16.303C23.294,16.233 23.241,16.16 23.193,16.084C22.568,15.165 21.811,14.341 20.946,13.638C20.783,13.502 20.597,13.354 20.543,13.308C20.502,13.281 20.464,13.25 20.43,13.214C20.43,13.199 21.368,12.801 22.087,12.512C23.336,12.009 25.044,11.408 26.325,11.02C26.999,10.821 27.714,10.621 27.726,10.621L27.714,10.619ZM28.138,10.729C28.249,10.766 28.354,10.817 28.453,10.881C29.797,11.644 31.041,12.57 32.154,13.638C32.449,13.923 33.163,14.666 33.163,14.672L32.61,14.716C29.852,14.959 27.117,15.41 24.428,16.064C24.226,16.11 24.065,16.148 24.055,16.148C24.044,16.148 24.256,15.936 24.529,15.679C26.214,14.081 26.983,13.063 27.887,11.256C28.023,10.986 28.136,10.755 28.142,10.741L28.138,10.729ZM15.814,11.979C15.89,11.997 16.609,12.326 17.152,12.596C17.648,12.839 18.399,13.239 18.437,13.271C18.437,13.271 18.177,13.412 17.848,13.574C16.809,14.089 15.916,14.572 14.986,15.137C14.722,15.297 14.498,15.429 14.492,15.429C14.486,15.429 14.477,15.409 14.627,15.139C15.141,14.19 15.52,13.175 15.751,12.122C15.771,12.029 15.795,11.973 15.814,11.977L15.814,11.979ZM15.089,12.106C15.011,12.463 14.914,12.815 14.798,13.161C14.54,13.929 14.213,14.674 13.821,15.385C13.735,15.539 13.602,15.764 13.527,15.886L13.39,16.108L13.079,15.81C12.778,15.507 12.431,15.253 12.049,15.057C11.955,15.015 11.865,14.963 11.781,14.902C12.313,14.373 12.871,13.87 13.454,13.396C13.977,12.963 15.075,12.094 15.089,12.106ZM19.489,13.903L19.76,14.077C20.422,14.508 21.06,14.975 21.671,15.475C21.984,15.732 22.593,16.273 22.718,16.403L22.785,16.473L22.337,16.597C19.8,17.294 17.842,17.913 15.555,18.743C15.301,18.835 15.083,18.911 15.067,18.911C15.051,18.911 15.004,18.939 15.573,18.42C16.974,17.156 18.222,15.736 19.291,14.187L19.489,13.903ZM18.333,14.191C18.347,14.205 17.584,15.261 17.122,15.858C16.579,16.573 15.614,17.765 14.95,18.544C14.671,18.869 14.435,19.143 14.421,19.143C14.407,19.143 14.399,19.069 14.399,18.943C14.392,18.26 14.231,17.586 13.929,16.972C13.801,16.719 13.781,16.657 13.807,16.635C13.912,16.541 15.525,15.637 16.542,15.091C17.241,14.72 18.314,14.181 18.326,14.195L18.333,14.191ZM11.339,15.88C11.438,15.922 11.533,15.97 11.626,16.024C11.962,16.206 12.28,16.419 12.576,16.661C12.48,16.76 12.371,16.847 12.253,16.92C11.729,17.296 10.929,17.891 10.467,18.256C10.005,18.622 9.962,18.656 10.017,18.57C10.295,18.166 10.543,17.743 10.758,17.304C10.934,16.931 11.088,16.547 11.218,16.156C11.243,16.058 11.282,15.964 11.335,15.878L11.339,15.88ZM13.202,17.328C13.226,17.328 13.262,17.372 13.404,17.593C13.725,18.075 13.937,18.62 14.023,19.191L14.035,19.3L13.279,19.59C11.92,20.111 10.671,20.626 9.825,21.008C9.589,21.115 9.171,21.311 8.899,21.447C8.626,21.583 8.404,21.688 8.404,21.682C8.404,21.676 8.576,21.549 8.784,21.399C10.328,20.313 11.727,19.039 12.948,17.605C13.063,17.466 13.168,17.346 13.18,17.338L13.19,17.338L13.202,17.328ZM12.342,17.539C12.022,17.949 11.676,18.337 11.305,18.701C10.276,19.75 9.124,20.672 7.873,21.449L7.54,21.648C7.504,21.668 7.552,21.617 8.128,20.996C8.491,20.596 8.768,20.281 9.084,19.875C9.231,19.667 9.418,19.49 9.635,19.354C10.455,18.769 12.328,17.513 12.35,17.535L12.342,17.539Z" style="fill:rgb(211,38,22);fill-rule:nonzero;"/>
                <g transform="matrix(1,0,0,1,-6971.84,-3526.74)">
                    <path d="M7026.2,3545.77C7026.04,3545.77 7025.88,3545.77 7025.72,3545.78C7022.47,3545.96 7020.28,3547.38 7018.99,3550.14C7017.9,3552.63 7018.02,3555.9 7019.01,3558.41C7020.16,3560.86 7022.02,3562.16 7025.12,3562.65C7025.77,3562.76 7026.21,3563.12 7027.48,3564.59L7029.04,3566.4L7031.88,3566.4L7029.99,3564.52C7028.95,3563.49 7028.1,3562.58 7028.1,3562.51C7028.1,3562.44 7028.5,3562.27 7028.98,3562.11C7030.58,3561.64 7031.89,3560.43 7032.82,3558.56C7033.56,3557.07 7033.68,3556.62 7033.78,3554.75C7034.07,3549.19 7031.11,3545.72 7026.2,3545.76L7026.2,3545.77ZM7013.04,3545.76C7010.4,3545.72 7008.69,3546.57 7007.89,3548.32C7006.71,3550.89 7007.76,3552.84 7011.52,3555.01C7013.63,3556.23 7014.57,3557.28 7014.57,3558.43C7014.57,3560.8 7011.66,3561.64 7008.67,3560.14C7008.07,3559.83 7007.54,3559.58 7007.51,3559.58C7007.4,3560.26 7007.45,3561.87 7007.45,3561.87C7008.19,3562.15 7008.96,3562.37 7009.75,3562.52C7013.18,3563.19 7016.28,3561.6 7016.57,3559.03C7016.85,3556.63 7015.96,3555.36 7012.62,3553.38C7010.38,3552.05 7009.39,3551.08 7009.52,3549.93C7009.87,3546.78 7013.8,3547.22 7015.97,3548.41L7015.97,3546.29C7015.03,3545.94 7014.04,3545.76 7013.04,3545.76ZM7036.36,3545.97L7036.36,3562.31L7045.08,3562.31L7045.08,3560.38L7038.42,3560.38L7038.42,3545.97L7036.36,3545.97ZM7026.05,3547.51C7029.5,3547.51 7031.47,3549.59 7031.7,3553.52C7031.91,3556.78 7030.8,3559.24 7028.68,3560.26C7027.3,3560.92 7025.3,3561.06 7023.98,3560.58C7022.64,3560.09 7021.33,3558.7 7020.73,3557.13C7020.08,3555.41 7020.17,3552.24 7020.92,3550.82C7022.13,3548.54 7023.72,3547.51 7026.05,3547.51Z" style="fill:rgb(35,31,31);fill-rule:nonzero;"/>
                </g>
                <path d="M71.659,13.299C71.663,13.265 71.658,13.231 71.646,13.199C71.633,13.167 71.614,13.139 71.589,13.115C71.506,13.064 71.409,13.041 71.312,13.05L71.126,13.05L71.126,13.555L71.35,13.555C71.552,13.555 71.659,13.469 71.659,13.299ZM71.948,14.349L71.693,14.349L71.53,13.994C71.447,13.816 71.358,13.728 71.264,13.728L71.126,13.728L71.126,14.349L70.924,14.349L70.924,12.872L71.346,12.872C71.498,12.861 71.649,12.905 71.77,12.996C71.81,13.03 71.841,13.073 71.862,13.121C71.883,13.169 71.893,13.221 71.891,13.273C71.894,13.369 71.858,13.462 71.793,13.533C71.717,13.609 71.618,13.659 71.512,13.676C71.595,13.694 71.678,13.786 71.76,13.948L71.962,14.347L71.948,14.349ZM72.414,13.627C72.412,13.458 72.369,13.293 72.287,13.145C72.205,12.997 72.088,12.871 71.946,12.779C71.804,12.686 71.64,12.63 71.47,12.615C71.301,12.599 71.13,12.626 70.973,12.691C70.816,12.757 70.678,12.86 70.571,12.991C70.463,13.121 70.39,13.277 70.358,13.442C70.326,13.607 70.335,13.778 70.385,13.939C70.435,14.1 70.525,14.247 70.646,14.365C70.792,14.509 70.978,14.606 71.18,14.644C71.382,14.683 71.591,14.661 71.78,14.582C71.97,14.503 72.131,14.37 72.244,14.2C72.357,14.03 72.416,13.83 72.414,13.627ZM72.555,13.627C72.557,13.778 72.527,13.928 72.468,14.067C72.41,14.206 72.322,14.332 72.212,14.437C71.985,14.648 71.685,14.765 71.373,14.765C71.062,14.765 70.762,14.648 70.535,14.437C70.319,14.217 70.199,13.923 70.199,13.617C70.199,13.31 70.319,13.016 70.535,12.796C70.759,12.584 71.057,12.465 71.367,12.463C71.677,12.46 71.976,12.574 72.204,12.782C72.317,12.888 72.406,13.017 72.464,13.159C72.524,13.302 72.552,13.455 72.548,13.609" style="fill:rgb(35,31,31);fill-rule:nonzero;"/>
                <path d="M42.158,17.468L41.475,17.468L41.475,13.589C41.475,13.283 41.493,12.908 41.532,12.468L41.516,12.468C41.472,12.659 41.413,12.846 41.34,13.028L39.35,17.468L39.015,17.468L37.019,13.059C36.94,12.866 36.882,12.665 36.843,12.461L36.827,12.461C36.849,12.692 36.859,13.059 36.859,13.589L36.859,17.468L36.199,17.468L36.199,11.69L37.103,11.69L38.896,15.719C39.002,15.943 39.091,16.175 39.162,16.412L39.191,16.412C39.308,16.096 39.392,15.859 39.471,15.703L41.294,11.69L42.151,11.69" style="fill:rgb(35,31,31);fill-rule:nonzero;"/>
                <path d="M44.269,13.343L44.269,17.468L43.6,17.468L43.6,13.343L44.269,13.343ZM44.384,11.865C44.384,11.922 44.373,11.979 44.351,12.031C44.329,12.084 44.296,12.131 44.254,12.171C44.213,12.211 44.164,12.243 44.111,12.264C44.057,12.286 44,12.296 43.942,12.295C43.827,12.297 43.716,12.254 43.633,12.175C43.551,12.093 43.505,11.983 43.505,11.867C43.505,11.752 43.551,11.642 43.633,11.56C43.716,11.481 43.827,11.437 43.943,11.437C44.058,11.437 44.169,11.481 44.252,11.56C44.295,11.599 44.328,11.646 44.35,11.699C44.373,11.752 44.383,11.808 44.382,11.865" style="fill:rgb(35,31,31);fill-rule:nonzero;"/>
                <path d="M48.432,17.278C48.085,17.478 47.689,17.578 47.287,17.568C47.018,17.578 46.749,17.531 46.499,17.429C46.249,17.327 46.025,17.174 45.84,16.979C45.474,16.575 45.281,16.047 45.303,15.505C45.276,14.903 45.487,14.315 45.893,13.866C46.096,13.656 46.342,13.491 46.615,13.383C46.888,13.275 47.181,13.225 47.475,13.239C47.809,13.232 48.14,13.304 48.44,13.448L48.44,14.125C48.151,13.918 47.802,13.805 47.445,13.804C47.25,13.798 47.056,13.834 46.877,13.91C46.698,13.986 46.538,14.1 46.407,14.243C46.117,14.574 45.966,15.003 45.987,15.441C45.964,15.856 46.102,16.264 46.373,16.581C46.504,16.721 46.664,16.831 46.843,16.904C47.021,16.976 47.214,17.009 47.406,17.001C47.779,16.997 48.139,16.872 48.432,16.645" style="fill:rgb(35,31,31);fill-rule:nonzero;"/>
                <path d="M51.616,14.011C51.465,13.913 51.286,13.867 51.106,13.88C50.971,13.88 50.839,13.913 50.72,13.975C50.601,14.037 50.499,14.127 50.423,14.237C50.197,14.567 50.087,14.963 50.111,15.361L50.111,17.468L49.443,17.468L49.443,13.341L50.111,13.341L50.111,14.191L50.127,14.191C50.205,13.92 50.362,13.677 50.579,13.494C50.759,13.349 50.984,13.269 51.217,13.269C51.353,13.262 51.49,13.281 51.62,13.325" style="fill:rgb(35,31,31);fill-rule:nonzero;"/>
                <path d="M55.337,15.414C55.368,14.98 55.239,14.55 54.974,14.204C54.851,14.069 54.698,13.963 54.528,13.894C54.358,13.825 54.175,13.794 53.991,13.804C53.806,13.796 53.621,13.827 53.449,13.896C53.276,13.965 53.121,14.07 52.994,14.204C52.707,14.549 52.565,14.99 52.596,15.435C52.57,15.855 52.705,16.268 52.974,16.593C53.101,16.732 53.258,16.841 53.432,16.913C53.606,16.985 53.794,17.018 53.983,17.011C54.173,17.024 54.363,16.992 54.539,16.919C54.714,16.845 54.87,16.732 54.992,16.587C55.239,16.249 55.359,15.836 55.331,15.419L55.337,15.414ZM56.016,15.395C56.043,15.976 55.841,16.544 55.452,16.979C55.258,17.18 55.022,17.337 54.761,17.44C54.5,17.543 54.219,17.59 53.939,17.578C53.661,17.59 53.384,17.543 53.126,17.44C52.869,17.337 52.637,17.179 52.447,16.979C52.076,16.56 51.884,16.015 51.91,15.459C51.91,14.741 52.112,14.185 52.516,13.794C52.718,13.608 52.957,13.463 53.217,13.369C53.477,13.275 53.753,13.234 54.029,13.247C54.3,13.232 54.57,13.276 54.821,13.375C55.072,13.474 55.299,13.626 55.485,13.82C55.833,14.201 56.008,14.726 56.01,15.395" style="fill:rgb(35,31,31);fill-rule:nonzero;"/>
                <path d="M59.333,16.364C59.336,16.523 59.304,16.681 59.237,16.827C59.171,16.972 59.073,17.101 58.949,17.204C58.626,17.462 58.219,17.591 57.805,17.568C57.444,17.576 57.088,17.489 56.772,17.316L56.772,16.609C57.073,16.866 57.458,17.008 57.856,17.009C58.386,17.006 58.651,16.814 58.651,16.434C58.653,16.358 58.638,16.284 58.608,16.215C58.577,16.146 58.532,16.084 58.475,16.034C58.266,15.877 58.036,15.75 57.791,15.657C57.512,15.553 57.258,15.394 57.044,15.19C56.852,14.958 56.759,14.66 56.787,14.361C56.814,14.062 56.96,13.786 57.191,13.592C57.489,13.352 57.864,13.227 58.247,13.239C58.556,13.236 58.861,13.304 59.139,13.439L59.139,14.103C58.864,13.908 58.533,13.805 58.195,13.81C58.003,13.8 57.814,13.857 57.662,13.972C57.597,14.02 57.546,14.083 57.511,14.156C57.475,14.228 57.458,14.307 57.46,14.387C57.455,14.466 57.468,14.545 57.497,14.619C57.526,14.692 57.57,14.759 57.627,14.814C57.818,14.96 58.029,15.076 58.255,15.158C58.538,15.261 58.798,15.416 59.024,15.613C59.125,15.712 59.204,15.83 59.256,15.96C59.308,16.09 59.333,16.23 59.329,16.37" style="fill:rgb(35,31,31);fill-rule:nonzero;"/>
                <path d="M63.415,15.413C63.445,14.98 63.316,14.55 63.051,14.203C62.927,14.068 62.776,13.963 62.605,13.894C62.435,13.824 62.251,13.794 62.068,13.804C61.883,13.796 61.698,13.827 61.526,13.896C61.354,13.965 61.199,14.07 61.071,14.203C60.784,14.548 60.64,14.989 60.669,15.435C60.643,15.854 60.778,16.268 61.047,16.593C61.174,16.731 61.33,16.84 61.505,16.912C61.679,16.984 61.867,17.018 62.056,17.011C62.246,17.023 62.436,16.992 62.612,16.918C62.787,16.845 62.942,16.731 63.065,16.587C63.312,16.249 63.432,15.836 63.404,15.419L63.415,15.413ZM64.089,15.395C64.117,15.975 63.914,16.543 63.525,16.978C63.33,17.179 63.094,17.337 62.833,17.44C62.571,17.543 62.291,17.59 62.01,17.578C61.733,17.59 61.455,17.543 61.199,17.439C60.942,17.336 60.71,17.179 60.52,16.978C60.149,16.56 59.957,16.015 59.984,15.459C59.984,14.74 60.185,14.185 60.588,13.794C60.791,13.607 61.029,13.463 61.29,13.369C61.55,13.275 61.826,13.233 62.103,13.247C62.373,13.232 62.643,13.275 62.894,13.374C63.146,13.473 63.372,13.625 63.558,13.82C63.906,14.2 64.081,14.726 64.082,15.395" style="fill:rgb(35,31,31);fill-rule:nonzero;"/>
                <path d="M67.044,11.941C66.908,11.867 66.755,11.829 66.6,11.831C66.134,11.831 65.901,12.123 65.9,12.706L65.9,13.343L66.876,13.343L66.876,13.904L65.9,13.904L65.9,17.468L65.231,17.468L65.231,13.904L64.523,13.904L64.523,13.343L65.231,13.343L65.231,12.674C65.221,12.476 65.254,12.278 65.328,12.094C65.402,11.909 65.515,11.743 65.66,11.606C65.848,11.449 66.075,11.343 66.318,11.298C66.56,11.252 66.81,11.268 67.044,11.344" style="fill:rgb(35,31,31);fill-rule:nonzero;"/>
                <path d="M69.679,17.432C69.485,17.529 69.269,17.574 69.052,17.564C68.324,17.564 67.96,17.158 67.96,16.348L67.96,13.902L67.243,13.902L67.243,13.341L67.96,13.341L67.96,12.342L68.628,12.129L68.628,13.349L69.679,13.349L69.679,13.91L68.628,13.91L68.628,16.234C68.607,16.444 68.657,16.654 68.771,16.833C68.832,16.896 68.906,16.945 68.988,16.975C69.071,17.006 69.16,17.017 69.247,17.009C69.402,17.012 69.554,16.965 69.679,16.875" style="fill:rgb(35,31,31);fill-rule:nonzero;"/>
                <path d="M18.759,35.522L18.452,35.522L18.452,36.466L18.327,36.466L18.327,35.522L18.018,35.522L18.018,35.402L18.759,35.402" style="fill:rgb(35,31,31);fill-rule:nonzero;"/>
                <path d="M20.013,36.466L19.898,36.466L19.898,35.757C19.898,35.701 19.898,35.633 19.908,35.558C19.9,35.592 19.889,35.626 19.875,35.659L19.494,36.466L19.433,36.466L19.068,35.667C19.054,35.633 19.043,35.596 19.036,35.56L19.036,36.466L18.915,36.466L18.915,35.402L19.09,35.402L19.417,36.139C19.437,36.179 19.453,36.221 19.466,36.264C19.488,36.207 19.504,36.163 19.516,36.135L19.857,35.402L20.015,35.402" style="fill:rgb(35,31,31);fill-rule:nonzero;"/>
            </g>
        </g>
    </g>
</svg>
