<?xml version="1.0" encoding="UTF-8" standalone="no"?>
<!DOCTYPE svg PUBLIC "-//W3C//DTD SVG 1.1//EN" "http://www.w3.org/Graphics/SVG/1.1/DTD/svg11.dtd">
<svg width="100%" height="100%" viewBox="0 0 90 15" version="1.1" xmlns="http://www.w3.org/2000/svg" xmlns:xlink="http://www.w3.org/1999/xlink" xml:space="preserve" xmlns:serif="http://www.serif.com/" style="fill-rule:evenodd;clip-rule:evenodd;stroke-linejoin:round;stroke-miterlimit:2;">
    <g transform="matrix(1,0,0,1,-3052.8,-6567.47)">
        <g transform="matrix(0.837748,0,0,4.61734,4197.62,3706.33)">
            <g id="Vmware" transform="matrix(0.563951,0,0,0.102321,-1312.9,621.238)">
                <g transform="matrix(1,0,0,1,-95.125,-15.5)">
                    <g id="VMW_10Q1_LGO_GUIDE_USLET_EN_R1" transform="matrix(1.25,0,0,-1.25,-375.855,370.03)">
                        <g id="g164">
                            <g>
                                <g>
                                    <g id="g166">
                                        <g id="g172" transform="matrix(1,0,0,1,388.349,250.856)">
                                            <path id="path174" d="M-21.716,23.2L-28.287,41.498C-28.371,41.751 -28.496,42.085 -28.496,42.378C-28.496,43.171 -27.826,43.924 -26.866,43.924C-26.028,43.924 -25.482,43.38 -25.232,42.587L-19.787,26.82L-14.303,42.631C-14.053,43.381 -13.55,43.925 -12.717,43.925L-12.547,43.925C-11.666,43.925 -11.122,43.381 -10.872,42.631L-5.433,26.82L0.098,42.67C0.307,43.343 0.764,43.925 1.646,43.925C2.566,43.925 3.237,43.217 3.237,42.42C3.237,42.128 3.11,41.795 3.028,41.54L-3.585,23.2C-3.923,22.242 -4.59,21.739 -5.345,21.739L-5.47,21.739C-6.308,21.739 -6.937,22.242 -7.232,23.2L-12.629,38.749L-18.073,23.2C-18.366,22.242 -18.996,21.739 -19.831,21.739L-19.919,21.739C-20.712,21.739 -21.379,22.242 -21.716,23.2" style="fill:rgb(105,101,102);fill-rule:nonzero;"/>
                                        </g>
                                        <g id="g176" transform="matrix(1,0,0,1,436.249,269.985)">
                                            <path id="path178" d="M-21.717,23.2C-21.717,24.083 -21.005,24.837 -20.126,24.837C-19.199,24.837 -18.489,24.124 -18.489,23.2L-18.489,19.487C-16.897,23.093 -13.366,24.795 -11.026,24.795C-10.057,24.795 -9.428,24.083 -9.428,23.161C-9.428,22.279 -10.012,21.653 -10.858,21.527C-15.053,21.024 -18.488,17.877 -18.488,11.627L-18.488,4.274C-18.488,3.393 -19.158,2.64 -20.08,2.64C-21.003,2.64 -21.716,3.356 -21.716,4.274L-21.717,23.2Z" style="fill:rgb(105,101,102);fill-rule:nonzero;"/>
                                        </g>
                                        <g id="g180" transform="matrix(1,0,0,1,458.898,249.221)">
                                            <path id="path182" d="M-21.716,23.2C-27.553,23.2 -32.319,27.727 -32.319,34.366L-32.319,34.452C-32.319,40.635 -28.003,45.616 -22.127,45.616C-15.844,45.616 -12.266,40.432 -12.266,34.743C-12.266,33.869 -12.971,33.244 -13.747,33.244L-29.109,33.244C-28.661,28.599 -25.417,25.985 -21.632,25.985C-19.001,25.985 -17.076,27.023 -15.512,28.476C-15.265,28.681 -14.978,28.847 -14.606,28.847C-13.828,28.847 -13.209,28.224 -13.209,27.474C-13.209,27.102 -13.373,26.727 -13.706,26.44C-15.717,24.491 -18.103,23.2 -21.716,23.2M-15.43,35.611C-15.76,39.516 -17.98,42.916 -22.213,42.916C-25.911,42.916 -28.705,39.805 -29.111,35.611L-15.43,35.611Z" style="fill:rgb(105,101,102);fill-rule:nonzero;"/>
                                        </g>
                                        <g id="g184" transform="matrix(1,0,0,1,413.36,255.941)">
                                            <path id="path186" d="M-21.717,23.2L-21.717,23.284C-21.717,27.84 -17.953,30.268 -12.478,30.268C-9.717,30.268 -7.753,29.892 -5.826,29.345L-5.826,30.101C-5.826,33.986 -8.216,35.996 -12.267,35.996C-14.442,35.996 -15.708,35.719 -17.3,35.01C-17.506,34.926 -17.717,34.883 -17.88,34.883C-18.633,34.883 -19.305,35.512 -19.305,36.263C-19.305,36.93 -19.014,37.343 -18.425,37.604C-16.296,38.528 -14.691,38.835 -11.933,38.835C-8.883,38.835 -6.541,38.043 -4.955,36.453C-3.489,34.99 -2.736,32.9 -2.736,30.139L-2.736,18.211C-2.736,17.294 -3.405,16.623 -4.288,16.623C-5.204,16.623 -5.825,17.293 -5.825,18.128L-5.825,20.19C-7.333,18.221 -9.844,16.468 -13.641,16.468C-17.657,16.471 -21.717,18.768 -21.717,23.2M-5.785,24.873L-5.785,26.964C-7.377,27.423 -9.512,27.884 -12.144,27.884C-16.194,27.884 -18.455,26.126 -18.455,23.411L-18.455,23.328C-18.455,20.611 -15.949,19.022 -13.019,19.022C-9.049,19.022 -5.785,21.448 -5.785,24.873" style="fill:rgb(105,101,102);fill-rule:nonzero;"/>
                                        </g>
                                        <g id="g188" transform="matrix(1,0,0,1,329.779,270.223)">
                                            <path id="path190" d="M-21.716,23.2C-22.424,24.752 -24.174,25.455 -25.808,24.729C-27.444,24.002 -28.046,22.188 -27.307,20.635L-20.446,5.722C-19.367,3.385 -18.23,2.16 -16.096,2.16C-13.816,2.16 -12.822,3.494 -11.744,5.722C-11.744,5.722 -5.76,18.752 -5.7,18.888C-5.639,19.026 -5.447,19.447 -4.838,19.443C-4.323,19.44 -3.89,19.029 -3.89,18.477L-3.89,5.735C-3.89,3.771 -2.801,2.16 -0.705,2.16C1.389,2.16 2.521,3.771 2.521,5.735L2.521,16.162C2.521,18.173 3.962,19.478 5.926,19.478C7.89,19.478 9.197,18.126 9.197,16.162L9.197,5.735C9.197,3.771 10.29,2.16 12.382,2.16C14.476,2.16 15.614,3.771 15.614,5.735L15.614,16.162C15.614,18.173 17.049,19.478 19.014,19.478C20.975,19.478 22.287,18.126 22.287,16.162L22.287,5.735C22.287,3.771 23.379,2.16 25.473,2.16C27.566,2.16 28.702,3.771 28.702,5.735L28.702,17.602C28.702,21.963 25.195,25.018 20.975,25.018C16.76,25.018 14.12,22.102 14.12,22.102C12.717,23.921 10.783,25.014 7.51,25.014C4.056,25.014 1.033,22.102 1.033,22.102C-0.371,23.921 -2.761,25.014 -4.74,25.014C-7.801,25.014 -10.232,23.668 -11.715,20.277L-16.096,9.95L-21.716,23.2Z" style="fill:rgb(105,101,102);fill-rule:nonzero;"/>
                                        </g>
                                        <g id="g192" transform="matrix(1,0,0,1,468.609,268.931)">
                                            <path id="path194" d="M-21.716,23.2L-21.716,23.218C-21.716,24.677 -20.532,25.906 -19.044,25.906C-17.535,25.906 -16.367,24.69 -16.367,23.229L-16.367,23.218C-16.367,21.754 -17.548,20.525 -19.044,20.525C-20.553,20.525 -21.716,21.737 -21.716,23.2M-16.881,23.218L-16.881,23.225C-16.881,24.425 -17.808,25.409 -19.044,25.409C-20.269,25.409 -21.21,24.408 -21.21,23.218L-21.21,23.204C-21.21,22.007 -20.28,21.023 -19.044,21.023C-17.823,21.023 -16.881,22.022 -16.881,23.218" style="fill:rgb(105,101,102);fill-rule:nonzero;"/>
                                        </g>
                                        <g id="g196" transform="matrix(1,0,0,1,470.257,270.007)">
                                            <path id="path198" d="M-21.715,23.2C-21.715,23.359 -21.588,23.486 -21.427,23.486L-20.535,23.486C-20.199,23.486 -19.94,23.391 -19.779,23.221C-19.632,23.078 -19.552,22.871 -19.552,22.631L-19.552,22.623C-19.552,22.215 -19.758,21.966 -20.069,21.835L-19.675,21.355C-19.62,21.283 -19.583,21.224 -19.583,21.136C-19.583,20.978 -19.717,20.874 -19.853,20.874C-19.98,20.874 -20.066,20.939 -20.133,21.021L-20.688,21.723L-21.143,21.723L-21.143,21.159C-21.143,21 -21.266,20.875 -21.426,20.875C-21.587,20.875 -21.714,21.001 -21.714,21.159L-21.714,23.2L-21.715,23.2ZM-20.567,22.228C-20.289,22.228 -20.136,22.373 -20.136,22.594L-20.136,22.603C-20.136,22.844 -20.3,22.974 -20.577,22.974L-21.146,22.974L-21.146,22.229L-20.567,22.229L-20.567,22.228Z" style="fill:rgb(105,101,102);fill-rule:nonzero;"/>
                                        </g>
                                    </g>
                                </g>
                            </g>
                        </g>
                    </g>
                </g>
            </g>
        </g>
    </g>
</svg>
