<?xml version="1.0" encoding="UTF-8" standalone="no"?>
<!DOCTYPE svg PUBLIC "-//W3C//DTD SVG 1.1//EN" "http://www.w3.org/Graphics/SVG/1.1/DTD/svg11.dtd">
<svg width="100%" height="100%" viewBox="0 0 101 24" version="1.1" xmlns="http://www.w3.org/2000/svg" xmlns:xlink="http://www.w3.org/1999/xlink" xml:space="preserve" xmlns:serif="http://www.serif.com/" style="fill-rule:evenodd;clip-rule:evenodd;stroke-linejoin:round;stroke-miterlimit:2;">
    <g transform="matrix(1,0,0,1,-2508.95,-6563.11)">
        <g transform="matrix(0.628973,0,0,4.61734,3364.56,3706.33)">
            <g id="win.html" transform="matrix(1.42905,0,0,0.194665,-1280.31,621.238)">
                <g transform="matrix(1,0,0,1,-56,-13)">
                    <path d="M0.849,3.946L11.186,2.538L11.191,12.509L0.858,12.568L0.849,3.946ZM11.181,13.658L11.189,23.638L0.857,22.217L0.856,13.591L11.181,13.658ZM12.434,2.354L26.141,0.353L26.141,12.382L12.434,12.491L12.434,2.354ZM26.144,13.752L26.141,25.727L12.434,23.792L12.415,13.73L26.144,13.752Z" style="fill:rgb(0,173,239);fill-rule:nonzero;"/>
                    <path d="M53.36,5.194L49.691,18.981L47.934,18.981L45.25,9.944C45.147,9.571 45.044,9.197 44.941,8.824C44.838,8.451 44.755,8.123 44.69,7.839C44.626,7.543 44.581,7.337 44.555,7.221C44.542,7.389 44.471,7.749 44.343,8.303C44.227,8.843 44.079,9.41 43.898,10.002L41.292,18.981L39.535,18.981L35.885,5.194L37.7,5.194L39.844,13.613C39.998,14.205 40.127,14.778 40.23,15.332C40.346,15.885 40.436,16.406 40.5,16.896C40.564,16.394 40.661,15.846 40.79,15.254C40.918,14.662 41.066,14.083 41.234,13.516L43.667,5.194L45.463,5.194L47.992,13.574C48.172,14.166 48.327,14.759 48.456,15.351C48.584,15.93 48.681,16.445 48.745,16.896C48.81,16.419 48.9,15.904 49.016,15.351C49.131,14.784 49.267,14.199 49.421,13.594L51.545,5.194L53.36,5.194Z" style="fill:rgb(0,173,239);fill-rule:nonzero;"/>
                    <path d="M55.15,4.75C55.408,4.75 55.633,4.84 55.826,5.02C56.032,5.188 56.135,5.458 56.135,5.831C56.135,6.192 56.032,6.462 55.826,6.642C55.633,6.823 55.408,6.913 55.15,6.913C54.868,6.913 54.629,6.823 54.436,6.642C54.243,6.462 54.147,6.192 54.147,5.831C54.147,5.458 54.243,5.188 54.436,5.02C54.629,4.84 54.868,4.75 55.15,4.75ZM55.981,8.631L55.981,18.981L54.282,18.981L54.282,8.631L55.981,8.631Z" style="fill:rgb(0,173,239);fill-rule:nonzero;"/>
                    <path d="M63.276,8.438C64.512,8.438 65.445,8.741 66.076,9.346C66.707,9.938 67.022,10.903 67.022,12.242L67.022,18.981L65.342,18.981L65.342,12.358C65.342,10.697 64.57,9.867 63.025,9.867C61.879,9.867 61.087,10.189 60.65,10.833C60.212,11.476 59.993,12.403 59.993,13.613L59.993,18.981L58.294,18.981L58.294,8.631L59.665,8.631L59.916,10.041L60.012,10.041C60.347,9.5 60.811,9.101 61.403,8.844C61.995,8.573 62.619,8.438 63.276,8.438Z" style="fill:rgb(0,173,239);fill-rule:nonzero;"/>
                    <path d="M72.934,19.174C71.646,19.174 70.617,18.73 69.844,17.842C69.072,16.941 68.686,15.602 68.686,13.825C68.686,12.049 69.072,10.71 69.844,9.809C70.63,8.895 71.666,8.438 72.953,8.438C73.751,8.438 74.401,8.586 74.903,8.882C75.419,9.178 75.837,9.539 76.159,9.964L76.274,9.964C76.262,9.796 76.236,9.552 76.197,9.23C76.172,8.895 76.159,8.631 76.159,8.438L76.159,4.306L77.858,4.306L77.858,18.981L76.487,18.981L76.236,17.591L76.159,17.591C75.849,18.029 75.438,18.402 74.923,18.711C74.408,19.02 73.745,19.174 72.934,19.174ZM73.204,17.765C74.298,17.765 75.065,17.469 75.502,16.876C75.952,16.271 76.178,15.364 76.178,14.154L76.178,13.845C76.178,12.557 75.966,11.573 75.541,10.89C75.116,10.195 74.331,9.848 73.185,9.848C72.271,9.848 71.582,10.214 71.119,10.948C70.668,11.669 70.443,12.641 70.443,13.864C70.443,15.1 70.668,16.059 71.119,16.741C71.582,17.423 72.277,17.765 73.204,17.765Z" style="fill:rgb(0,173,239);fill-rule:nonzero;"/>
                    <path d="M89.178,13.787C89.178,15.499 88.741,16.825 87.865,17.765C87.003,18.704 85.832,19.174 84.351,19.174C83.437,19.174 82.62,18.968 81.899,18.556C81.191,18.132 80.631,17.52 80.219,16.722C79.807,15.911 79.601,14.933 79.601,13.787C79.601,12.075 80.032,10.755 80.895,9.828C81.757,8.902 82.929,8.438 84.409,8.438C85.349,8.438 86.172,8.651 86.881,9.075C87.601,9.487 88.162,10.092 88.561,10.891C88.972,11.676 89.178,12.641 89.178,13.787ZM81.358,13.787C81.358,15.01 81.596,15.982 82.072,16.703C82.561,17.411 83.334,17.765 84.389,17.765C85.432,17.765 86.198,17.411 86.688,16.703C87.177,15.982 87.421,15.01 87.421,13.787C87.421,12.564 87.177,11.605 86.688,10.91C86.198,10.215 85.426,9.867 84.37,9.867C83.315,9.867 82.549,10.215 82.072,10.91C81.596,11.605 81.358,12.564 81.358,13.787Z" style="fill:rgb(0,173,239);fill-rule:nonzero;"/>
                    <path d="M98.985,18.962L97.208,13.13C97.041,12.603 96.893,12.088 96.764,11.586C96.649,11.071 96.558,10.672 96.494,10.388L96.417,10.388C96.365,10.672 96.282,11.071 96.166,11.586C96.05,12.088 95.902,12.609 95.722,13.15L93.868,18.962L91.937,18.962L89.098,8.612L90.856,8.612L92.285,14.134C92.426,14.688 92.561,15.248 92.69,15.814C92.819,16.381 92.909,16.851 92.96,17.224L93.038,17.224C93.089,17.005 93.147,16.735 93.211,16.413C93.289,16.091 93.373,15.757 93.463,15.409C93.552,15.049 93.643,14.727 93.733,14.444L95.567,8.612L97.421,8.612L99.198,14.444C99.339,14.881 99.474,15.358 99.603,15.872C99.745,16.387 99.841,16.831 99.893,17.205L99.97,17.205C100.008,16.883 100.092,16.439 100.221,15.872C100.362,15.306 100.51,14.727 100.665,14.134L102.113,8.612L103.851,8.612L100.974,18.962L98.985,18.962Z" style="fill:rgb(0,173,239);fill-rule:nonzero;"/>
                    <path d="M111.481,16.123C111.481,17.127 111.108,17.887 110.362,18.402C109.615,18.917 108.611,19.174 107.349,19.174C106.628,19.174 106.004,19.116 105.476,19.001C104.961,18.885 104.504,18.724 104.105,18.518L104.105,16.973C104.517,17.179 105.013,17.372 105.592,17.552C106.184,17.72 106.783,17.803 107.388,17.803C108.25,17.803 108.875,17.668 109.261,17.398C109.647,17.115 109.84,16.741 109.84,16.278C109.84,16.02 109.769,15.789 109.628,15.583C109.486,15.377 109.229,15.171 108.855,14.965C108.495,14.759 107.973,14.527 107.291,14.27C106.622,14.012 106.049,13.755 105.573,13.497C105.096,13.24 104.73,12.931 104.472,12.57C104.214,12.21 104.086,11.746 104.086,11.18C104.086,10.305 104.44,9.629 105.148,9.153C105.869,8.676 106.809,8.438 107.967,8.438C108.598,8.438 109.184,8.502 109.724,8.631C110.278,8.747 110.792,8.914 111.269,9.133L110.689,10.485C110.252,10.305 109.795,10.15 109.319,10.022C108.842,9.893 108.353,9.828 107.851,9.828C107.156,9.828 106.622,9.944 106.249,10.176C105.888,10.395 105.708,10.697 105.708,11.084C105.708,11.367 105.791,11.611 105.959,11.817C106.126,12.01 106.403,12.204 106.789,12.397C107.188,12.577 107.716,12.796 108.373,13.053C109.029,13.298 109.589,13.549 110.053,13.806C110.516,14.064 110.87,14.379 111.114,14.752C111.359,15.113 111.481,15.57 111.481,16.123Z" style="fill:rgb(0,173,239);fill-rule:nonzero;"/>
                </g>
            </g>
        </g>
    </g>
</svg>
